<svg xmlns="http://www.w3.org/2000/svg" xmlns:xlink="http://www.w3.org/1999/xlink" width="1080" zoomAndPan="magnify" viewBox="0 0 810 809.999993" height="1080" preserveAspectRatio="xMidYMid meet" version="1.0"><defs><clipPath id="id1"><path d="M 223.894531 82 L 321 82 L 321 294 L 223.894531 294 Z M 223.894531 82 " clip-rule="nonzero"/></clipPath><clipPath id="id2"><path d="M 480 564 L 605.644531 564 L 605.644531 716 L 480 716 Z M 480 564 " clip-rule="nonzero"/></clipPath><clipPath id="id3"><path d="M 509 594 L 605.644531 594 L 605.644531 726 L 509 726 Z M 509 594 " clip-rule="nonzero"/></clipPath></defs><rect x="-81" width="972" fill="rgb(100%, 100%, 100%)" y="-80.999999" height="971.999992" fill-opacity="1"/><rect x="-81" width="972" fill="rgb(100%, 39.99939%, 76.858521%)" y="-80.999999" height="971.999992" fill-opacity="1"/><path fill="rgb(90.19928%, 74.119568%, 63.139343%)" d="M 284.945312 568.757812 C 284.144531 564.757812 283.609375 560.757812 283.078125 556.757812 C 264.417969 583.960938 256.6875 621.832031 289.476562 705.578125 C 292.675781 713.582031 316.132812 714.113281 328.929688 711.980469 C 314.269531 689.578125 284.945312 568.757812 284.945312 568.757812 Z M 284.945312 568.757812 " fill-opacity="1" fill-rule="nonzero"/><path fill="rgb(90.19928%, 74.119568%, 63.139343%)" d="M 472.085938 593.5625 C 471.289062 591.695312 479.816406 549.554688 525.671875 571.691406 C 532.070312 567.957031 568.589844 561.558594 570.988281 593.5625 C 579.253906 593.296875 610.710938 604.496094 593.648438 631.703125 C 598.980469 632.5 616.84375 658.105469 588.316406 675.976562 C 592.851562 679.441406 596.582031 708.78125 562.992188 706.914062 C 564.058594 710.378906 554.726562 731.71875 527.003906 718.648438 C 526.738281 720.515625 506.476562 735.984375 483.816406 712.515625 C 478.484375 715.980469 444.628906 717.847656 452.625 683.710938 Z M 472.085938 593.5625 " fill-opacity="1" fill-rule="nonzero"/><path fill="rgb(90.19928%, 74.119568%, 63.139343%)" d="M 366.519531 263.910156 C 366.519531 263.910156 388.644531 114.554688 425.167969 84.148438 C 443.5625 68.949219 503.542969 167.363281 419.304688 291.914062 C 419.570312 291.914062 390.777344 304.71875 366.519531 263.910156 Z M 366.519531 263.910156 " fill-opacity="1" fill-rule="nonzero"/><g clip-path="url(#id1)"><path fill="rgb(90.19928%, 74.119568%, 63.139343%)" d="M 320.398438 263.910156 C 320.398438 263.910156 298.273438 114.554688 261.75 84.148438 C 243.355469 68.949219 183.375 167.363281 267.617188 291.914062 C 267.617188 291.914062 296.140625 304.71875 320.398438 263.910156 Z M 320.398438 263.910156 " fill-opacity="1" fill-rule="nonzero"/></g><path fill="rgb(90.19928%, 74.119568%, 63.139343%)" d="M 475.019531 710.648438 C 471.289062 712.246094 443.828125 715.714844 430.234375 715.714844 C 400.640625 715.714844 398.507812 699.445312 397.175781 695.179688 C 396.910156 694.113281 396.375 693.3125 395.84375 692.246094 C 393.179688 687.445312 385.179688 671.441406 379.046875 647.703125 C 375.582031 633.300781 365.1875 615.433594 355.855469 604.230469 C 354.257812 602.363281 345.992188 591.429688 335.863281 576.761719 C 318.265625 570.09375 338.527344 426.335938 363.851562 399.398438 C 365.984375 398.332031 367.320312 397.53125 367.320312 397.53125 C 375.316406 393.53125 384.914062 397.265625 388.644531 406.066406 C 394.777344 420.203125 399.84375 433.269531 404.640625 442.339844 C 417.171875 467.144531 435.832031 503.683594 448.894531 523.417969 C 485.683594 579.160156 486.75 663.972656 485.148438 694.910156 C 485.148438 702.113281 481.152344 708.246094 475.019531 710.648438 Z M 475.019531 710.648438 " fill-opacity="1" fill-rule="nonzero"/><path fill="rgb(98.039246%, 98.039246%, 98.039246%)" d="M 428.367188 119.890625 C 428.367188 119.890625 405.972656 138.824219 385.714844 254.84375 C 385.714844 254.84375 401.175781 263.113281 407.574219 275.378906 C 407.308594 275.378906 463.554688 138.824219 428.367188 119.890625 Z M 428.367188 119.890625 " fill-opacity="1" fill-rule="nonzero"/><path fill="rgb(98.039246%, 98.039246%, 98.039246%)" d="M 258.820312 119.890625 C 258.820312 119.890625 281.210938 138.824219 301.472656 254.84375 C 301.472656 254.84375 286.011719 263.113281 279.613281 275.378906 C 279.613281 275.378906 223.363281 138.824219 258.820312 119.890625 Z M 258.820312 119.890625 " fill-opacity="1" fill-rule="nonzero"/><path fill="rgb(0%, 0%, 0%)" d="M 437.429688 85.75 C 425.96875 128.425781 396.109375 235.105469 410.238281 294.851562 C 417.171875 294.851562 419.570312 291.914062 419.570312 291.914062 C 488.082031 190.300781 461.421875 104.953125 437.429688 85.75 Z M 437.429688 85.75 " fill-opacity="0.0471" fill-rule="nonzero"/><path fill="rgb(90.19928%, 74.119568%, 63.139343%)" d="M 440.894531 330.320312 C 407.574219 229.773438 353.988281 232.707031 346.257812 232.441406 C 337.996094 232.441406 284.675781 232.171875 251.621094 329.789062 C 217.5 430.871094 298.804688 456.476562 342.792969 456.476562 L 349.722656 456.476562 C 393.175781 456.742188 474.484375 431.136719 440.894531 330.320312 Z M 440.894531 330.320312 " fill-opacity="1" fill-rule="nonzero"/><path fill="rgb(94.119263%, 94.119263%, 94.119263%)" d="M 395.042969 529.019531 C 381.714844 508.484375 391.84375 477.277344 411.039062 465.277344 C 412.90625 464.210938 421.96875 463.140625 423.035156 462.074219 C 428.898438 454.339844 391.84375 390.0625 385.980469 387.664062 C 385.980469 387.664062 344.925781 424.203125 293.742188 398.332031 C 293.742188 398.332031 266.816406 472.476562 276.679688 475.144531 C 282.011719 476.476562 285.210938 482.878906 284.410156 489.28125 C 280.945312 512.214844 280.144531 539.152344 285.476562 568.757812 C 285.476562 568.757812 319.867188 710.648438 332.929688 715.714844 C 351.324219 722.648438 381.714844 733.316406 415.835938 713.3125 C 415.570312 713.316406 428.898438 580.761719 395.042969 529.019531 Z M 395.042969 529.019531 " fill-opacity="1" fill-rule="nonzero"/><path fill="rgb(90.19928%, 74.119568%, 63.139343%)" d="M 442.761719 574.09375 C 442.761719 574.09375 367.851562 673.308594 403.574219 706.648438 C 403.574219 706.648438 354.789062 730.652344 404.640625 727.183594 C 454.226562 723.714844 442.761719 714.648438 442.761719 714.648438 C 442.761719 714.648438 479.816406 730.917969 493.148438 698.113281 C 503.808594 672.507812 492.613281 595.695312 472.085938 550.890625 C 472.085938 550.890625 462.757812 544.222656 442.761719 574.09375 Z M 442.761719 574.09375 " fill-opacity="1" fill-rule="nonzero"/><g clip-path="url(#id2)"><path fill="rgb(94.119263%, 94.119263%, 94.119263%)" d="M 594.984375 631.433594 C 612.84375 603.964844 580.585938 592.761719 571.789062 593.027344 C 569.65625 561.023438 532.335938 567.160156 525.402344 571.160156 C 503.277344 560.757812 488.617188 563.957031 480.085938 572.492188 L 484.882812 588.496094 C 488.347656 589.5625 490.746094 590.628906 494.480469 592.496094 C 501.144531 588.761719 538.464844 582.359375 540.867188 614.367188 C 549.398438 614.097656 581.652344 625.300781 564.058594 652.773438 C 569.390625 653.570312 587.785156 679.175781 558.726562 697.3125 C 561.125 698.914062 563.257812 707.714844 560.058594 715.449219 C 562.992188 711.980469 564.058594 708.246094 563.527344 707.179688 C 597.648438 709.046875 593.917969 679.441406 589.382812 676.242188 C 618.707031 657.839844 600.3125 632.5 594.984375 631.433594 Z M 594.984375 631.433594 " fill-opacity="1" fill-rule="nonzero"/></g><path fill="rgb(98.039246%, 98.039246%, 98.039246%)" d="M 346.257812 388.996094 C 293.476562 369.792969 249.753906 407.132812 249.753906 407.132812 C 273.214844 460.207031 346.257812 457.808594 346.257812 457.808594 C 346.257812 457.808594 421.703125 457.542969 442.496094 407.398438 C 442.496094 407.667969 398.777344 370.0625 346.257812 388.996094 Z M 346.257812 388.996094 " fill-opacity="1" fill-rule="nonzero"/><path fill="rgb(0%, 0%, 0%)" d="M 389.980469 450.605469 C 391.578125 456.476562 393.976562 462.875 397.175781 469.808594 C 404.640625 471.945312 410.238281 470.078125 418.238281 465.542969 C 420.371094 464.476562 421.96875 463.140625 423.035156 462.074219 C 424.902344 460.476562 421.703125 450.339844 416.636719 438.070312 C 408.375 443.40625 399.042969 447.671875 389.980469 450.605469 Z M 389.980469 450.605469 " fill-opacity="0.0471" fill-rule="nonzero"/><path fill="rgb(90.19928%, 74.119568%, 63.139343%)" d="M 451.558594 514.082031 C 451.558594 514.082031 429.433594 474.609375 423.035156 461.808594 C 423.035156 461.808594 400.375 465.808594 379.582031 478.878906 C 367.050781 486.878906 347.859375 503.683594 342.261719 518.085938 C 332.929688 542.355469 335.59375 574.09375 347.859375 574.359375 C 363.851562 574.625 373.183594 560.492188 383.046875 544.753906 C 397.175781 522.886719 446.496094 519.683594 451.558594 514.082031 Z M 451.558594 514.082031 " fill-opacity="1" fill-rule="nonzero"/><path fill="rgb(0%, 0%, 0%)" d="M 440.894531 330.855469 C 436.097656 316.988281 427.566406 297.785156 422.234375 287.648438 C 415.039062 325.519531 416.636719 380.460938 416.902344 437.804688 C 430.765625 429.269531 464.355469 400.199219 440.894531 330.855469 Z M 440.894531 330.855469 " fill-opacity="0.0471" fill-rule="nonzero"/><path fill="rgb(0%, 0%, 0%)" d="M 442.496094 407.933594 C 442.496094 407.933594 437.964844 402.332031 416.636719 392.464844 C 416.636719 411.667969 416.371094 417.535156 416.902344 437.804688 C 425.433594 432.203125 435.03125 424.46875 442.496094 407.933594 Z M 442.496094 407.933594 " fill-opacity="0.0471" fill-rule="nonzero"/><g clip-path="url(#id3)"><path fill="rgb(0%, 0%, 0%)" d="M 594.984375 631.433594 C 609.644531 609.03125 590.449219 597.296875 578.453125 594.097656 C 565.390625 633.035156 543.53125 684.242188 509.410156 725.316406 C 519.804688 725.316406 527.003906 719.714844 527.269531 718.648438 C 555.527344 731.71875 565.125 710.378906 564.058594 706.914062 C 598.183594 708.78125 594.449219 679.175781 589.917969 675.976562 C 618.707031 657.839844 600.3125 632.5 594.984375 631.433594 Z M 594.984375 631.433594 " fill-opacity="0.0471" fill-rule="nonzero"/></g><path fill="rgb(90.19928%, 74.119568%, 63.139343%)" d="M 281.480469 436.472656 C 278.546875 435.136719 261.21875 517.550781 277.214844 545.289062 C 277.214844 545.289062 291.875 574.625 307.605469 574.625 C 307.605469 574.625 318 574.09375 320.398438 565.824219 C 326.796875 542.621094 297.207031 444.472656 281.480469 436.472656 Z M 281.480469 436.472656 " fill-opacity="1" fill-rule="nonzero"/><path fill="rgb(25.489807%, 25.489807%, 25.489807%)" d="M 298.804688 336.457031 C 298.804688 331.121094 301.207031 326.855469 304.136719 326.855469 C 307.070312 326.855469 309.46875 331.121094 309.46875 336.457031 C 309.46875 341.789062 307.070312 346.058594 304.136719 346.058594 C 301.207031 346.058594 298.804688 341.789062 298.804688 336.457031 Z M 298.804688 336.457031 " fill-opacity="1" fill-rule="nonzero"/><path fill="rgb(25.489807%, 25.489807%, 25.489807%)" d="M 381.449219 336.457031 C 381.449219 331.121094 383.847656 326.855469 386.78125 326.855469 C 389.710938 326.855469 392.113281 331.121094 392.113281 336.457031 C 392.113281 341.789062 389.710938 346.058594 386.78125 346.058594 C 383.582031 346.058594 381.449219 341.789062 381.449219 336.457031 Z M 381.449219 336.457031 " fill-opacity="1" fill-rule="nonzero"/><path fill="rgb(25.489807%, 25.489807%, 25.489807%)" d="M 335.328125 714.113281 C 335.328125 714.113281 344.925781 723.449219 300.40625 726.648438 C 291.074219 727.183594 276.679688 728.785156 272.679688 724.515625 C 272.679688 724.515625 268.949219 718.648438 294.808594 706.113281 C 295.074219 706.113281 323.066406 697.3125 335.328125 714.113281 Z M 335.328125 714.113281 " fill-opacity="1" fill-rule="nonzero"/><path fill="rgb(25.489807%, 25.489807%, 25.489807%)" d="M 346.523438 397.265625 C 355.855469 397.265625 363.851562 390.332031 363.851562 385.53125 C 363.851562 382.328125 353.722656 380.996094 346.792969 380.996094 C 338.261719 380.996094 329.996094 382.328125 329.996094 385.53125 C 329.730469 390.332031 337.195312 397 346.523438 397.265625 Z M 346.523438 397.265625 " fill-opacity="1" fill-rule="nonzero"/><path fill="rgb(25.489807%, 25.489807%, 25.489807%)" d="M 444.628906 714.113281 C 444.628906 714.113281 454.226562 723.449219 409.707031 726.648438 C 400.375 727.183594 385.980469 728.785156 381.980469 724.515625 C 381.980469 724.515625 378.25 718.648438 404.109375 706.113281 C 404.375 706.113281 432.367188 697.3125 444.628906 714.113281 Z M 444.628906 714.113281 " fill-opacity="1" fill-rule="nonzero"/><path fill="rgb(90.19928%, 74.119568%, 63.139343%)" d="M 451.558594 514.082031 L 472.085938 550.890625 L 463.824219 551.6875 L 443.027344 514.082031 Z M 451.558594 514.082031 " fill-opacity="1" fill-rule="nonzero"/><path fill="rgb(0%, 0%, 0%)" d="M 472.085938 551.421875 C 467.820312 541.820312 463.554688 536.488281 458.757812 526.886719 C 456.890625 524.21875 453.960938 517.816406 451.828125 514.617188 C 439.03125 491.148438 423.035156 461.808594 423.035156 461.808594 C 423.035156 461.808594 412.371094 463.941406 397.175781 469.808594 C 397.175781 469.808594 414.503906 517.015625 418.503906 524.484375 C 418.503906 524.484375 425.167969 539.152344 436.363281 557.289062 C 450.226562 579.960938 458.757812 617.566406 456.359375 643.171875 C 454.757812 660.238281 436.363281 695.179688 431.03125 713.582031 C 439.5625 716.25 473.417969 727.449219 487.550781 707.980469 C 490.214844 705.578125 492.347656 702.378906 493.148438 698.644531 C 493.148438 698.644531 493.148438 698.644531 493.148438 698.378906 C 503.8125 672.773438 492.613281 596.230469 472.085938 551.421875 Z M 472.085938 551.421875 " fill-opacity="0.0471" fill-rule="nonzero"/></svg>