<svg xmlns="http://www.w3.org/2000/svg" xmlns:xlink="http://www.w3.org/1999/xlink" width="1080" zoomAndPan="magnify" viewBox="0 0 810 809.999993" height="1080" preserveAspectRatio="xMidYMid meet" version="1.0"><defs><clipPath id="id1"><path d="M 296 619 L 363 619 L 363 653.652344 L 296 653.652344 Z M 296 619 " clip-rule="nonzero"/></clipPath><clipPath id="id2"><path d="M 341 156.402344 L 343 156.402344 L 343 157 L 341 157 Z M 341 156.402344 " clip-rule="nonzero"/></clipPath><clipPath id="id3"><path d="M 345 156.402344 L 348 156.402344 L 348 157 L 345 157 Z M 345 156.402344 " clip-rule="nonzero"/></clipPath><clipPath id="id4"><path d="M 354 156.402344 L 358 156.402344 L 358 157 L 354 157 Z M 354 156.402344 " clip-rule="nonzero"/></clipPath><clipPath id="id5"><path d="M 358 156.402344 L 361 156.402344 L 361 158 L 358 158 Z M 358 156.402344 " clip-rule="nonzero"/></clipPath><clipPath id="id6"><path d="M 351 156.402344 L 354 156.402344 L 354 157 L 351 157 Z M 351 156.402344 " clip-rule="nonzero"/></clipPath><clipPath id="id7"><path d="M 348 156.402344 L 351 156.402344 L 351 157 L 348 157 Z M 348 156.402344 " clip-rule="nonzero"/></clipPath><clipPath id="id8"><path d="M 95 156.402344 L 726 156.402344 L 726 649 L 95 649 Z M 95 156.402344 " clip-rule="nonzero"/></clipPath></defs><rect x="-81" width="972" fill="rgb(100%, 100%, 100%)" y="-80.999999" height="971.999992" fill-opacity="1"/><rect x="-81" width="972" fill="rgb(100%, 87.059021%, 34.899902%)" y="-80.999999" height="971.999992" fill-opacity="1"/><path fill="rgb(75.689697%, 48.629761%, 64.309692%)" d="M 179.671875 222.351562 C 193.890625 211.875 210.332031 204.644531 224.488281 194.328125 C 224.976562 193.972656 225.441406 193.625 225.894531 193.285156 C 225.808594 193.25 225.71875 193.21875 225.636719 193.179688 C 214.804688 188.382812 204.9375 180.597656 193.363281 177.636719 C 181.84375 174.6875 168.992188 177.535156 159.800781 185.078125 C 146.46875 196.019531 142.183594 214.269531 138.695312 231.160156 C 135.546875 246.390625 132.273438 290.53125 132.480469 314.652344 C 147.894531 268.949219 165.453125 232.828125 179.671875 222.351562 Z M 179.671875 222.351562 " fill-opacity="1" fill-rule="nonzero"/><path fill="rgb(75.689697%, 48.629761%, 64.309692%)" d="M 294.304688 647.007812 L 291.285156 632.621094 C 291.234375 632.628906 291.183594 632.648438 291.132812 632.65625 C 285.964844 633.34375 281.152344 636.816406 278.871094 641.503906 C 278.40625 642.457031 277.476562 643.097656 276.417969 643.191406 C 276.328125 643.199219 276.242188 643.203125 276.15625 643.203125 C 275.191406 643.203125 274.28125 642.738281 273.710938 641.949219 C 267.949219 633.972656 255.570312 631.542969 247.21875 636.734375 C 245.804688 637.613281 243.941406 637.179688 243.058594 635.765625 C 242.179688 634.347656 242.613281 632.484375 244.03125 631.605469 C 253.878906 625.476562 267.476562 627.25 275.746094 635.140625 C 279.210938 630.648438 284.390625 627.554688 290.046875 626.71875 L 285.398438 604.558594 L 250.992188 500.097656 C 250.648438 499.703125 250.328125 499.285156 249.988281 498.886719 L 236.601562 651.53125 L 295.316406 651.53125 L 296.832031 649.332031 C 295.613281 649.152344 294.574219 648.277344 294.304688 647.007812 Z M 294.304688 647.007812 " fill-opacity="1" fill-rule="nonzero"/><path fill="rgb(75.689697%, 48.629761%, 64.309692%)" d="M 610.242188 651.53125 L 611.207031 651.53125 L 611.46875 649.585938 L 610.945312 649.585938 C 610.945312 650.304688 610.695312 650.992188 610.242188 651.53125 Z M 610.242188 651.53125 " fill-opacity="1" fill-rule="nonzero"/><path fill="rgb(75.689697%, 48.629761%, 64.309692%)" d="M 600.355469 634.6875 C 600.054688 634.828125 599.734375 634.933594 599.390625 634.96875 C 594.414062 635.488281 589.636719 638.652344 587.230469 643.03125 C 586.695312 643.996094 585.683594 644.59375 584.582031 644.59375 C 583.480469 644.59375 582.46875 643.996094 581.9375 643.027344 C 579.9375 639.390625 576.5625 636.167969 571.621094 633.179688 C 567.644531 630.773438 561.835938 628.25 556.816406 629.886719 C 553.886719 630.839844 551.335938 633.136719 548.871094 635.355469 C 547.628906 636.472656 545.71875 636.367188 544.609375 635.128906 C 543.492188 633.894531 543.59375 631.980469 544.832031 630.867188 C 547.628906 628.351562 550.800781 625.5 554.949219 624.144531 C 560.726562 622.265625 567.390625 623.566406 574.75 628.015625 C 578.925781 630.539062 582.195312 633.269531 584.644531 636.289062 C 588.214844 632.253906 593.269531 629.566406 598.65625 628.976562 L 598.113281 627.152344 C 586.859375 622.167969 541.191406 596.773438 524.859375 587.648438 L 546.761719 651.535156 L 605.675781 651.535156 C 605.40625 651.21875 605.175781 650.871094 605.050781 650.445312 Z M 600.355469 634.6875 " fill-opacity="1" fill-rule="nonzero"/><g clip-path="url(#id1)"><path fill="rgb(98.039246%, 83.529663%, 89.7995%)" d="M 344.367188 621 C 340.804688 621.261719 337.765625 623.695312 335.53125 626.496094 C 331.871094 631.066406 329.796875 636.882812 329.714844 642.722656 C 327.882812 634.285156 321.359375 619.1875 310.914062 619.070312 C 305.40625 619.015625 300.261719 623.695312 296.746094 629.246094 L 300.214844 645.765625 C 300.515625 647.195312 299.75 648.601562 298.460938 649.15625 C 298.597656 649.953125 298.734375 650.746094 298.875 651.542969 L 361.878906 653.632812 L 362.867188 648.945312 C 362.726562 641.535156 360.410156 634.1875 356.121094 628.148438 C 353.347656 624.242188 349.160156 620.636719 344.367188 621 Z M 344.367188 621 " fill-opacity="1" fill-rule="nonzero"/></g><path fill="rgb(98.039246%, 83.529663%, 89.7995%)" d="M 651.421875 623.496094 C 648.019531 624.703125 645.582031 627.863281 644.515625 631.308594 C 643.429688 634.769531 643.570312 638.472656 644.074219 642.035156 C 642.320312 633.378906 640.390625 624.34375 634.695312 617.597656 C 632.4375 614.941406 629.21875 612.585938 625.734375 613.007812 C 624.125 613.210938 622.65625 613.972656 621.289062 614.839844 C 614.339844 619.269531 608.542969 628.011719 607.277344 636.785156 L 610.835938 648.722656 C 610.921875 649.011719 610.949219 649.300781 610.949219 649.585938 L 673.464844 649.585938 C 673.566406 648.460938 673.644531 647.332031 673.746094 646.207031 C 672.738281 641.171875 670.785156 636.339844 668.03125 632.03125 C 664.363281 626.375 657.761719 621.261719 651.421875 623.496094 Z M 651.421875 623.496094 " fill-opacity="1" fill-rule="nonzero"/><path fill="rgb(100%, 100%, 100%)" d="M 188.691406 321.015625 C 188.335938 321.5 188.003906 322 187.707031 322.527344 C 187.980469 322.039062 188.3125 321.597656 188.640625 321.144531 C 188.65625 321.101562 188.671875 321.054688 188.691406 321.015625 Z M 188.691406 321.015625 " fill-opacity="1" fill-rule="nonzero"/><path fill="rgb(100%, 100%, 100%)" d="M 186.433594 330.367188 C 186.386719 330.234375 186.324219 330.109375 186.285156 329.976562 C 185.828125 328.332031 186.066406 326.554688 186.621094 324.9375 C 186.886719 324.15625 187.222656 323.421875 187.609375 322.71875 C 187.222656 323.421875 186.886719 324.15625 186.617188 324.9375 C 186.066406 326.554688 185.824219 328.332031 186.285156 329.976562 C 186.324219 330.113281 186.386719 330.234375 186.433594 330.367188 Z M 186.433594 330.367188 " fill-opacity="1" fill-rule="nonzero"/><path fill="rgb(100%, 100%, 100%)" d="M 188.714844 333.597656 C 188.433594 333.351562 188.164062 333.09375 187.914062 332.820312 C 188.164062 333.09375 188.433594 333.351562 188.714844 333.597656 Z M 188.714844 333.597656 " fill-opacity="1" fill-rule="nonzero"/><path fill="rgb(100%, 100%, 100%)" d="M 190.089844 334.609375 C 190.890625 335.128906 191.746094 335.578125 192.605469 335.953125 C 192.617188 335.960938 192.632812 335.964844 192.648438 335.96875 C 192.632812 335.964844 192.617188 335.960938 192.605469 335.953125 C 191.746094 335.578125 190.890625 335.128906 190.089844 334.609375 Z M 190.089844 334.609375 " fill-opacity="1" fill-rule="nonzero"/><path fill="rgb(100%, 100%, 100%)" d="M 201.722656 338.101562 C 200.746094 338.039062 199.773438 337.925781 198.808594 337.765625 C 199.769531 337.929688 200.746094 338.03125 201.722656 338.101562 Z M 201.722656 338.101562 " fill-opacity="1" fill-rule="nonzero"/><path fill="rgb(100%, 100%, 100%)" d="M 222.242188 317.101562 C 220.6875 315.519531 216.269531 313.894531 213.359375 313.492188 C 212.988281 313.4375 208.34375 312.878906 203.515625 314.636719 C 207.003906 322.160156 206.714844 330.058594 205.023438 338.136719 C 203.976562 338.183594 202.925781 338.171875 201.878906 338.113281 C 208.167969 338.511719 214.597656 336.910156 219.800781 333.339844 C 222.023438 331.816406 224.058594 329.929688 225.371094 327.574219 C 226.855469 324.902344 227.332031 320.707031 226.328125 317.257812 C 225.136719 318.269531 223.359375 318.238281 222.242188 317.101562 Z M 222.242188 317.101562 " fill-opacity="1" fill-rule="nonzero"/><path fill="rgb(100%, 100%, 100%)" d="M 197.890625 337.566406 C 197.160156 337.417969 196.429688 337.269531 195.714844 337.0625 C 196.429688 337.273438 197.160156 337.414062 197.890625 337.566406 Z M 197.890625 337.566406 " fill-opacity="1" fill-rule="nonzero"/><path fill="rgb(98.039246%, 83.529663%, 89.7995%)" d="M 268.902344 202.421875 C 269.003906 202.164062 269.101562 201.910156 269.21875 201.660156 C 269.101562 201.910156 269.003906 202.164062 268.902344 202.421875 Z M 268.902344 202.421875 " fill-opacity="1" fill-rule="nonzero"/><path fill="rgb(98.039246%, 83.529663%, 89.7995%)" d="M 268.152344 206.355469 C 268.15625 206.101562 268.175781 205.84375 268.195312 205.589844 C 268.175781 205.84375 268.15625 206.101562 268.152344 206.355469 Z M 268.152344 206.355469 " fill-opacity="1" fill-rule="nonzero"/><path fill="rgb(98.039246%, 83.529663%, 89.7995%)" d="M 270.105469 200.0625 C 270.226562 199.871094 270.34375 199.679688 270.472656 199.496094 C 270.34375 199.679688 270.226562 199.871094 270.105469 200.0625 Z M 270.105469 200.0625 " fill-opacity="1" fill-rule="nonzero"/><path fill="rgb(98.039246%, 83.529663%, 89.7995%)" d="M 268.195312 207.527344 C 268.175781 207.296875 268.171875 207.070312 268.167969 206.847656 C 268.171875 207.070312 268.175781 207.296875 268.195312 207.527344 Z M 268.195312 207.527344 " fill-opacity="1" fill-rule="nonzero"/><path fill="rgb(98.039246%, 83.529663%, 89.7995%)" d="M 269.292969 213.0625 L 269.289062 213.050781 Z M 269.292969 213.0625 " fill-opacity="1" fill-rule="nonzero"/><path fill="rgb(98.039246%, 83.529663%, 89.7995%)" d="M 269.457031 201.199219 C 269.566406 200.984375 269.679688 200.765625 269.800781 200.554688 C 269.675781 200.765625 269.566406 200.984375 269.457031 201.199219 Z M 269.457031 201.199219 " fill-opacity="1" fill-rule="nonzero"/><path fill="rgb(98.039246%, 83.529663%, 89.7995%)" d="M 268.765625 211.007812 C 268.726562 210.835938 268.691406 210.667969 268.65625 210.496094 C 268.691406 210.667969 268.726562 210.835938 268.765625 211.007812 Z M 268.765625 211.007812 " fill-opacity="1" fill-rule="nonzero"/><path fill="rgb(98.039246%, 83.529663%, 89.7995%)" d="M 268.324219 208.695312 C 268.292969 208.484375 268.273438 208.277344 268.25 208.070312 C 268.273438 208.277344 268.292969 208.484375 268.324219 208.695312 Z M 268.324219 208.695312 " fill-opacity="1" fill-rule="nonzero"/><path fill="rgb(98.039246%, 83.529663%, 89.7995%)" d="M 269.046875 212.132812 C 269.011719 211.996094 268.976562 211.859375 268.941406 211.722656 C 268.976562 211.859375 269.011719 211.996094 269.046875 212.132812 Z M 269.046875 212.132812 " fill-opacity="1" fill-rule="nonzero"/><path fill="rgb(98.039246%, 83.529663%, 89.7995%)" d="M 268.519531 209.855469 C 268.480469 209.664062 268.449219 209.472656 268.417969 209.285156 C 268.449219 209.476562 268.480469 209.664062 268.519531 209.855469 Z M 268.519531 209.855469 " fill-opacity="1" fill-rule="nonzero"/><path fill="rgb(98.039246%, 83.529663%, 89.7995%)" d="M 270.835938 198.988281 C 270.960938 198.816406 271.085938 198.648438 271.214844 198.480469 C 271.085938 198.648438 270.960938 198.816406 270.835938 198.988281 Z M 270.835938 198.988281 " fill-opacity="1" fill-rule="nonzero"/><path fill="rgb(98.039246%, 83.529663%, 89.7995%)" d="M 272.496094 196.941406 C 272.59375 196.835938 272.6875 196.730469 272.785156 196.628906 C 272.6875 196.730469 272.59375 196.835938 272.496094 196.941406 Z M 272.496094 196.941406 " fill-opacity="1" fill-rule="nonzero"/><path fill="rgb(98.039246%, 83.529663%, 89.7995%)" d="M 268.746094 202.820312 C 268.609375 203.21875 268.492188 203.621094 268.402344 204.035156 C 268.316406 204.417969 268.257812 204.804688 268.21875 205.191406 C 268.257812 204.804688 268.316406 204.417969 268.402344 204.035156 C 268.492188 203.621094 268.609375 203.214844 268.746094 202.820312 Z M 268.746094 202.820312 " fill-opacity="1" fill-rule="nonzero"/><path fill="rgb(98.039246%, 83.529663%, 89.7995%)" d="M 271.640625 197.949219 C 271.757812 197.804688 271.878906 197.660156 272 197.519531 C 271.878906 197.660156 271.757812 197.804688 271.640625 197.949219 Z M 271.640625 197.949219 " fill-opacity="1" fill-rule="nonzero"/><path fill="rgb(98.039246%, 83.529663%, 89.7995%)" d="M 338.320312 157.367188 C 338.753906 157.300781 339.1875 157.238281 339.625 157.179688 C 339.1875 157.238281 338.753906 157.300781 338.320312 157.367188 Z M 338.320312 157.367188 " fill-opacity="1" fill-rule="nonzero"/><path fill="rgb(98.039246%, 83.529663%, 89.7995%)" d="M 335.339844 157.890625 C 335.746094 157.8125 336.148438 157.738281 336.550781 157.664062 C 336.148438 157.738281 335.746094 157.8125 335.339844 157.890625 Z M 335.339844 157.890625 " fill-opacity="1" fill-rule="nonzero"/><g clip-path="url(#id2)"><path fill="rgb(98.039246%, 83.529663%, 89.7995%)" d="M 341.34375 156.949219 C 341.871094 156.886719 342.402344 156.839844 342.933594 156.789062 C 342.402344 156.839844 341.871094 156.886719 341.34375 156.949219 Z M 341.34375 156.949219 " fill-opacity="1" fill-rule="nonzero"/></g><g clip-path="url(#id3)"><path fill="rgb(98.039246%, 83.529663%, 89.7995%)" d="M 345.535156 156.582031 C 346.09375 156.550781 346.652344 156.511719 347.210938 156.488281 C 346.652344 156.511719 346.09375 156.546875 345.535156 156.582031 Z M 345.535156 156.582031 " fill-opacity="1" fill-rule="nonzero"/></g><path fill="rgb(98.039246%, 83.529663%, 89.7995%)" d="M 327.988281 159.65625 C 328.0625 159.632812 328.144531 159.613281 328.222656 159.59375 C 328.144531 159.613281 328.066406 159.632812 327.988281 159.65625 Z M 327.988281 159.65625 " fill-opacity="1" fill-rule="nonzero"/><path fill="rgb(98.039246%, 83.529663%, 89.7995%)" d="M 418.875 214.386719 C 414.308594 192.121094 396.648438 170.609375 375.804688 161.554688 C 396.648438 170.609375 414.308594 192.121094 418.875 214.386719 Z M 418.875 214.386719 " fill-opacity="1" fill-rule="nonzero"/><path fill="rgb(98.039246%, 83.529663%, 89.7995%)" d="M 332.503906 158.496094 C 332.84375 158.417969 333.179688 158.335938 333.519531 158.261719 C 333.179688 158.335938 332.84375 158.417969 332.503906 158.496094 Z M 332.503906 158.496094 " fill-opacity="1" fill-rule="nonzero"/><g clip-path="url(#id4)"><path fill="rgb(98.039246%, 83.529663%, 89.7995%)" d="M 354.84375 156.582031 C 355.804688 156.644531 356.765625 156.726562 357.722656 156.832031 C 356.765625 156.726562 355.804688 156.644531 354.84375 156.582031 Z M 354.84375 156.582031 " fill-opacity="1" fill-rule="nonzero"/></g><path fill="rgb(98.039246%, 83.529663%, 89.7995%)" d="M 365.109375 158.070312 C 365.804688 158.226562 366.496094 158.398438 367.183594 158.582031 C 366.496094 158.398438 365.804688 158.226562 365.109375 158.070312 Z M 365.109375 158.070312 " fill-opacity="1" fill-rule="nonzero"/><path fill="rgb(98.039246%, 83.529663%, 89.7995%)" d="M 361.972656 157.441406 C 362.648438 157.558594 363.324219 157.6875 364 157.828125 C 363.324219 157.6875 362.648438 157.558594 361.972656 157.441406 Z M 361.972656 157.441406 " fill-opacity="1" fill-rule="nonzero"/><path fill="rgb(98.039246%, 83.529663%, 89.7995%)" d="M 368.148438 158.832031 C 369.144531 159.113281 370.136719 159.410156 371.121094 159.742188 C 370.136719 159.410156 369.144531 159.113281 368.148438 158.832031 Z M 368.148438 158.832031 " fill-opacity="1" fill-rule="nonzero"/><g clip-path="url(#id5)"><path fill="rgb(98.039246%, 83.529663%, 89.7995%)" d="M 358.367188 156.910156 C 359.214844 157.011719 360.058594 157.125 360.902344 157.257812 C 360.058594 157.125 359.214844 157.011719 358.367188 156.910156 Z M 358.367188 156.910156 " fill-opacity="1" fill-rule="nonzero"/></g><g clip-path="url(#id6)"><path fill="rgb(98.039246%, 83.529663%, 89.7995%)" d="M 351.769531 156.453125 C 352.375 156.464844 352.980469 156.492188 353.589844 156.519531 C 352.980469 156.488281 352.375 156.464844 351.769531 156.453125 Z M 351.769531 156.453125 " fill-opacity="1" fill-rule="nonzero"/></g><g clip-path="url(#id7)"><path fill="rgb(98.039246%, 83.529663%, 89.7995%)" d="M 348.679688 156.453125 C 349.238281 156.441406 349.792969 156.433594 350.347656 156.4375 C 349.792969 156.433594 349.238281 156.441406 348.679688 156.453125 Z M 348.679688 156.453125 " fill-opacity="1" fill-rule="nonzero"/></g><path fill="rgb(98.039246%, 83.529663%, 89.7995%)" d="M 427.550781 324.957031 C 428.417969 328.34375 428.859375 331.789062 428.710938 335.316406 C 428.859375 331.789062 428.421875 328.34375 427.550781 324.957031 Z M 427.550781 324.957031 " fill-opacity="1" fill-rule="nonzero"/><path fill="rgb(98.039246%, 83.529663%, 89.7995%)" d="M 377.390625 423.777344 C 379.648438 422.660156 381.992188 421.636719 384.257812 420.652344 C 391.03125 417.695312 397.433594 414.90625 401.726562 409.753906 C 407.339844 403.011719 408.101562 393.859375 408.90625 384.167969 C 409.582031 376.097656 410.273438 367.75 413.882812 360.3125 C 414.839844 358.328125 415.996094 356.453125 417.226562 354.640625 C 415.878906 347.660156 414.359375 340.722656 411.796875 334.144531 C 405.789062 318.738281 394.144531 305.417969 391.488281 289.101562 C 389.1875 274.945312 394.019531 260.734375 395.730469 246.488281 C 396.332031 241.523438 396.515625 236.476562 396.253906 231.464844 C 396.167969 231.46875 396.085938 231.480469 396 231.472656 C 394.335938 231.375 393.066406 229.941406 393.167969 228.28125 C 393.996094 214.347656 388.363281 200.386719 378.09375 190.9375 C 372.929688 186.1875 366.398438 182.425781 359.203125 180.066406 C 342.453125 174.566406 323.121094 179.589844 309.972656 192.863281 C 306.207031 196.664062 303.242188 201.152344 301.242188 205.910156 C 300.8125 207.40625 300.421875 208.90625 300.082031 210.40625 C 298.175781 218.8125 297.722656 227.246094 298.609375 236.113281 C 298.746094 236.621094 298.871094 237.136719 299.03125 237.628906 C 299.242188 238.273438 299.214844 238.933594 299.015625 239.527344 C 299.285156 241.511719 299.609375 243.511719 300.007812 245.546875 C 306.160156 276.960938 317.464844 306.96875 316.28125 338.6875 C 316.210938 340.511719 316.121094 342.339844 315.964844 344.175781 C 316.472656 350.238281 316.761719 356.3125 316.789062 362.390625 C 316.851562 377.652344 315.785156 392.886719 314.894531 408.113281 C 314.25 419.101562 313.226562 430.175781 316.003906 440.957031 C 316.554688 443.105469 317.261719 445.117188 318.070312 447.035156 C 322.910156 451.535156 328.261719 454.761719 334.832031 454.550781 C 339.839844 454.390625 344.011719 452.257812 347.832031 449.21875 C 347.890625 449.121094 347.9375 449.019531 348.003906 448.929688 C 355.902344 438.082031 366.066406 429.386719 377.390625 423.777344 Z M 377.390625 423.777344 " fill-opacity="1" fill-rule="nonzero"/><path fill="rgb(98.039246%, 83.529663%, 89.7995%)" d="M 414.875 257.4375 C 416.703125 248.769531 418.949219 240.078125 419.734375 231.390625 C 418.949219 240.078125 416.703125 248.769531 414.875 257.4375 Z M 414.875 257.4375 " fill-opacity="1" fill-rule="nonzero"/><g clip-path="url(#id8)"><path fill="rgb(92.549133%, 71.369934%, 83.529663%)" d="M 721.226562 531.125 C 719.597656 529.019531 717.519531 527.074219 716.96875 524.472656 C 716.625 522.839844 716.9375 521.144531 717.234375 519.5 C 722.449219 490.605469 722.351562 460.765625 716.949219 431.90625 C 716.023438 426.953125 715.074219 421.464844 713.285156 416.492188 C 712.777344 415.082031 712.171875 413.734375 711.511719 412.429688 C 711.417969 410.472656 711.289062 408.515625 711.121094 406.558594 C 705.988281 346.6875 671.871094 301.691406 619.855469 274.210938 C 606.007812 266.90625 591.472656 261.167969 576.519531 256.878906 C 576.476562 256.859375 576.457031 256.859375 576.417969 256.839844 C 548.175781 245.042969 518.425781 236.890625 488.070312 232.863281 C 466.492188 230.003906 444.710938 229.160156 422.972656 228.332031 C 421.953125 228.292969 420.9375 228.257812 419.921875 228.21875 C 419.941406 227.820312 419.984375 227.417969 419.992188 227.019531 C 420.074219 224.105469 419.957031 221.191406 419.566406 218.28125 C 419.390625 216.984375 419.140625 215.6875 418.875 214.390625 C 414.304688 192.125 396.644531 170.613281 375.800781 161.554688 C 374.257812 160.882812 372.699219 160.273438 371.125 159.742188 C 371.125 159.742188 371.121094 159.742188 371.117188 159.742188 C 370.136719 159.410156 369.144531 159.113281 368.148438 158.835938 C 367.828125 158.746094 367.503906 158.667969 367.183594 158.582031 C 366.492188 158.398438 365.804688 158.226562 365.109375 158.070312 C 364.738281 157.988281 364.371094 157.90625 364 157.832031 C 363.324219 157.6875 362.648438 157.5625 361.96875 157.441406 C 361.609375 157.382812 361.257812 157.316406 360.898438 157.257812 C 360.058594 157.125 359.210938 157.011719 358.367188 156.910156 C 358.152344 156.886719 357.9375 156.855469 357.722656 156.832031 C 356.761719 156.726562 355.800781 156.644531 354.839844 156.582031 C 354.421875 156.554688 354.003906 156.539062 353.582031 156.519531 C 352.980469 156.492188 352.371094 156.46875 351.765625 156.453125 C 351.292969 156.441406 350.820312 156.4375 350.347656 156.4375 C 349.789062 156.433594 349.234375 156.441406 348.679688 156.453125 C 348.1875 156.464844 347.699219 156.46875 347.207031 156.488281 C 346.648438 156.511719 346.089844 156.550781 345.53125 156.582031 C 344.664062 156.636719 343.796875 156.707031 342.929688 156.789062 C 342.402344 156.839844 341.871094 156.890625 341.339844 156.949219 C 340.765625 157.019531 340.191406 157.101562 339.621094 157.179688 C 339.183594 157.238281 338.75 157.300781 338.316406 157.367188 C 337.726562 157.460938 337.136719 157.558594 336.546875 157.664062 C 336.144531 157.738281 335.738281 157.8125 335.335938 157.890625 C 334.730469 158.011719 334.121094 158.128906 333.515625 158.261719 C 333.175781 158.335938 332.835938 158.417969 332.5 158.496094 C 331.0625 158.828125 329.636719 159.1875 328.21875 159.59375 C 328.140625 159.613281 328.0625 159.636719 327.984375 159.65625 C 324.53125 160.65625 321.144531 161.855469 317.855469 163.257812 C 301.761719 170.09375 287.816406 181.214844 275.578125 193.71875 C 271.707031 191.894531 267.71875 190.339844 263.636719 189.082031 C 256.476562 186.875 248.832031 185.492188 241.320312 186.167969 C 234.027344 186.828125 230.921875 189.515625 225.890625 193.285156 C 225.4375 193.625 224.972656 193.96875 224.484375 194.328125 C 210.332031 204.644531 193.890625 211.875 179.671875 222.351562 C 165.453125 232.828125 147.894531 268.949219 132.480469 314.652344 C 103.574219 400.335938 82.203125 519.722656 104.558594 567.09375 C 117.503906 594.53125 140.011719 616.085938 170.1875 617.886719 C 191.472656 619.160156 193.789062 585.574219 193.789062 585.574219 C 193.789062 585.574219 177.046875 578.882812 169.570312 571.546875 C 149.433594 543.914062 162.207031 436.90625 187.59375 427.191406 C 187.433594 428.089844 187.347656 429.007812 187.332031 429.914062 C 187.195312 437.574219 189.898438 445.253906 194.796875 451.140625 C 201.460938 440.980469 210.066406 429.769531 219.882812 420.753906 C 220.660156 430.402344 222.394531 439.957031 225.042969 449.257812 C 229.292969 464.15625 235.8125 478.410156 244.289062 491.394531 C 246.035156 494.0625 247.972656 496.519531 249.988281 498.890625 C 250.328125 499.289062 250.648438 499.707031 250.992188 500.097656 C 258.398438 508.527344 266.996094 515.578125 273.796875 524.371094 C 281.105469 533.832031 281.183594 550.238281 283.21875 561.917969 C 284.214844 567.640625 285.21875 573.363281 286.21875 579.089844 L 296.746094 629.25 C 300.261719 623.699219 305.410156 619.015625 310.914062 619.070312 C 321.359375 619.191406 327.882812 634.289062 329.714844 642.722656 C 329.796875 636.886719 331.871094 631.070312 335.535156 626.496094 C 337.769531 623.699219 340.808594 621.261719 344.371094 621 C 349.160156 620.640625 353.347656 624.242188 356.125 628.148438 C 360.414062 634.1875 362.726562 641.535156 362.871094 648.945312 L 377.636719 579.320312 C 377.59375 579.3125 377.550781 579.316406 377.511719 579.308594 C 375.882812 578.945312 374.855469 577.335938 375.21875 575.707031 C 378.183594 562.347656 380.933594 551.285156 383.855469 540.886719 C 384.308594 539.277344 385.984375 538.355469 387.582031 538.796875 C 389.1875 539.25 390.121094 540.917969 389.671875 542.523438 C 386.941406 552.214844 384.367188 562.53125 381.617188 574.769531 C 419.25 582.964844 464.992188 587.246094 519.011719 584.371094 C 537.363281 583.398438 556.664062 581.597656 576.921875 578.847656 C 579.128906 578.542969 581.289062 578.195312 583.421875 577.832031 L 571.316406 537.195312 C 570.839844 535.597656 571.75 533.917969 573.351562 533.441406 C 574.933594 532.960938 576.628906 533.875 577.105469 535.472656 L 607.277344 636.785156 C 608.542969 628.011719 614.339844 619.273438 621.285156 614.84375 C 622.65625 613.976562 624.125 613.210938 625.734375 613.007812 C 629.21875 612.585938 632.4375 614.941406 634.695312 617.597656 C 640.390625 624.34375 642.320312 633.382812 644.074219 642.039062 C 643.570312 638.476562 643.429688 634.769531 644.515625 631.308594 C 645.582031 627.867188 648.019531 624.707031 651.421875 623.496094 C 657.761719 621.261719 664.363281 626.375 668.027344 632.035156 C 670.785156 636.34375 672.738281 641.171875 673.746094 646.207031 C 676.300781 615.507812 678.878906 584.804688 681.433594 554.125 C 682.902344 536.628906 681.476562 515.894531 690.109375 500.695312 C 699.878906 483.5 706.519531 464.640625 709.644531 445.191406 C 710.726562 451.609375 711.597656 458.058594 712.195312 464.539062 C 714.09375 485.109375 713.535156 505.902344 710.492188 526.332031 C 709.964844 529.875 709.320312 533.519531 707.367188 536.523438 C 706.671875 537.59375 705.777344 538.734375 705.996094 539.992188 C 706.332031 541.929688 708.851562 542.417969 710.816406 542.464844 C 711.355469 547.960938 710.363281 553.601562 707.984375 558.585938 C 712.105469 559.800781 716.960938 557.46875 718.589844 553.492188 C 720.027344 555.386719 720.273438 558.109375 719.199219 560.234375 C 726.8125 552.796875 727.734375 539.542969 721.226562 531.125 Z M 100.164062 497.542969 C 100.964844 496.078125 102.800781 495.550781 104.261719 496.347656 C 107.261719 497.992188 110.652344 499 114.070312 499.265625 C 115.734375 499.390625 116.976562 500.84375 116.847656 502.507812 C 116.726562 504.089844 115.402344 505.292969 113.839844 505.292969 C 113.761719 505.292969 113.683594 505.292969 113.601562 505.285156 C 109.339844 504.953125 105.105469 503.695312 101.359375 501.644531 C 99.898438 500.84375 99.359375 499.007812 100.164062 497.542969 Z M 97.238281 521.339844 C 97.839844 519.78125 99.582031 519.007812 101.140625 519.597656 C 108.929688 522.582031 112.871094 523.367188 121.207031 523.617188 C 122.875 523.664062 124.183594 525.058594 124.136719 526.722656 C 124.089844 528.359375 122.746094 529.652344 121.121094 529.652344 C 121.089844 529.652344 121.058594 529.652344 121.03125 529.652344 C 111.976562 529.382812 107.441406 528.476562 98.984375 525.238281 C 97.425781 524.644531 96.644531 522.898438 97.238281 521.339844 Z M 133.121094 555.488281 C 131.25 555.601562 129.441406 555.664062 127.679688 555.664062 C 118.589844 555.664062 110.742188 554.101562 101.71875 550.609375 C 100.164062 550.007812 99.390625 548.257812 99.996094 546.703125 C 100.59375 545.148438 102.339844 544.375 103.902344 544.976562 C 113.929688 548.859375 122.011719 550.109375 132.75 549.460938 C 134.429688 549.359375 135.84375 550.628906 135.949219 552.292969 C 136.050781 553.957031 134.785156 555.386719 133.121094 555.488281 Z M 165.664062 316.480469 C 165.28125 317.800781 164.074219 318.660156 162.765625 318.660156 C 162.488281 318.660156 162.203125 318.621094 161.921875 318.539062 C 158.605469 317.578125 156.171875 317.042969 154.023438 316.578125 C 148.582031 315.390625 145.296875 314.675781 137.703125 308.882812 C 136.378906 307.871094 136.121094 305.976562 137.132812 304.652344 C 138.144531 303.324219 140.039062 303.066406 141.363281 304.082031 C 147.894531 309.058594 150.21875 309.566406 155.308594 310.675781 C 157.4375 311.140625 160.09375 311.722656 163.605469 312.738281 C 165.207031 313.203125 166.128906 314.878906 165.664062 316.480469 Z M 219.800781 333.34375 C 214.597656 336.910156 208.167969 338.511719 201.882812 338.113281 C 201.828125 338.109375 201.777344 338.101562 201.722656 338.101562 C 200.746094 338.03125 199.773438 337.933594 198.808594 337.765625 C 198.5 337.714844 198.199219 337.628906 197.890625 337.566406 C 197.160156 337.414062 196.429688 337.273438 195.714844 337.0625 C 194.671875 336.761719 193.648438 336.402344 192.648438 335.96875 C 192.636719 335.964844 192.617188 335.960938 192.605469 335.953125 C 191.746094 335.578125 190.890625 335.128906 190.089844 334.609375 C 189.609375 334.300781 189.144531 333.96875 188.71875 333.597656 C 188.433594 333.351562 188.164062 333.09375 187.917969 332.820312 C 187.261719 332.105469 186.757812 331.285156 186.433594 330.367188 C 186.386719 330.234375 186.324219 330.109375 186.289062 329.976562 C 185.828125 328.332031 186.070312 326.554688 186.621094 324.9375 C 186.886719 324.15625 187.226562 323.421875 187.613281 322.71875 C 187.644531 322.65625 187.675781 322.589844 187.710938 322.523438 C 188.007812 322 188.339844 321.496094 188.695312 321.011719 C 194.066406 308.480469 207.238281 306.558594 214.179688 307.507812 C 217.355469 307.941406 223.523438 309.78125 226.554688 312.867188 C 227.722656 314.054688 227.707031 315.96875 226.519531 317.140625 C 226.464844 317.191406 226.390625 317.210938 226.335938 317.257812 C 227.339844 320.707031 226.859375 324.902344 225.378906 327.574219 C 224.0625 329.929688 222.027344 331.816406 219.800781 333.34375 Z M 298.339844 389.953125 C 288.417969 401.945312 282.953125 408.554688 261.839844 414.953125 L 260.003906 415.515625 C 253.3125 417.59375 240.859375 421.457031 224.484375 421.925781 C 224.453125 421.929688 224.421875 421.929688 224.394531 421.929688 C 222.894531 421.929688 221.652344 420.824219 221.425781 419.375 C 221.40625 419.25 221.382812 419.125 221.378906 418.996094 C 221.328125 417.328125 222.644531 415.9375 224.308594 415.890625 C 224.78125 415.878906 225.214844 415.835938 225.675781 415.816406 C 240.519531 415.203125 251.558594 411.8125 258.214844 409.746094 L 260.089844 409.171875 C 279.460938 403.296875 283.914062 397.910156 293.683594 386.105469 C 296.402344 382.816406 299.484375 379.089844 303.375 374.761719 C 304.484375 373.527344 306.390625 373.417969 307.636719 374.535156 C 308.878906 375.652344 308.976562 377.5625 307.863281 378.800781 C 304.058594 383.035156 301.019531 386.710938 298.339844 389.953125 Z M 311.492188 614.378906 C 311.359375 614.398438 311.222656 614.40625 311.089844 614.40625 C 309.601562 614.40625 308.304688 613.300781 308.101562 611.785156 L 306.429688 599.175781 C 306.210938 597.523438 307.375 596.003906 309.027344 595.785156 C 310.65625 595.554688 312.195312 596.726562 312.417969 598.382812 L 314.089844 610.988281 C 314.308594 612.640625 313.144531 614.160156 311.492188 614.378906 Z M 360.65625 592.527344 C 360.351562 592.625 360.039062 592.671875 359.734375 592.671875 C 358.457031 592.671875 357.269531 591.855469 356.859375 590.570312 C 355.445312 586.152344 354.949219 581.347656 355.429688 576.679688 C 355.597656 575.023438 357.117188 573.828125 358.738281 573.984375 C 360.398438 574.152344 361.605469 575.636719 361.4375 577.292969 C 361.042969 581.144531 361.449219 585.097656 362.609375 588.730469 C 363.121094 590.320312 362.242188 592.019531 360.65625 592.527344 Z M 434.988281 334.1875 C 434.320312 341.691406 429.925781 347.566406 425.679688 353.25 C 423.242188 356.515625 420.9375 359.601562 419.3125 362.945312 C 416.199219 369.375 415.582031 376.800781 414.925781 384.667969 C 414.078125 394.867188 413.199219 405.414062 406.367188 413.617188 C 401.15625 419.871094 393.792969 423.082031 386.671875 426.1875 C 384.46875 427.148438 382.195312 428.140625 380.070312 429.191406 C 369.617188 434.367188 360.210938 442.425781 352.882812 452.488281 C 352.289062 453.300781 351.371094 453.730469 350.4375 453.730469 C 349.824219 453.730469 349.199219 453.542969 348.664062 453.148438 C 347.410156 452.234375 347.082031 450.539062 347.832031 449.222656 C 344.011719 452.261719 339.839844 454.394531 334.832031 454.550781 C 328.261719 454.765625 322.910156 451.539062 318.070312 447.035156 C 317.261719 445.117188 316.554688 443.105469 316.003906 440.960938 C 313.226562 430.179688 314.25 419.101562 314.894531 408.117188 C 315.785156 392.890625 316.851562 377.65625 316.789062 362.394531 C 316.761719 356.3125 316.472656 350.238281 315.964844 344.179688 C 316.121094 342.339844 316.210938 340.515625 316.277344 338.691406 C 317.464844 306.972656 306.160156 276.964844 300.007812 245.550781 C 299.609375 243.515625 299.285156 241.511719 299.015625 239.53125 C 298.71875 240.402344 298.042969 241.132812 297.101562 241.441406 C 296.789062 241.542969 296.472656 241.589844 296.160156 241.589844 C 294.890625 241.589844 293.707031 240.785156 293.289062 239.511719 C 291.828125 235.046875 291.246094 230.0625 291.5 224.320312 C 291.667969 220.460938 292.207031 216.273438 293.152344 211.628906 C 294.863281 203.222656 299.3125 195.050781 305.683594 188.617188 C 320.425781 173.730469 342.179688 168.121094 361.085938 174.332031 C 369.09375 176.960938 376.390625 181.167969 382.183594 186.5 C 393.773438 197.164062 400.132812 212.921875 399.195312 228.644531 C 399.105469 230.222656 397.828125 231.457031 396.253906 231.472656 C 396.519531 236.484375 396.335938 241.53125 395.734375 246.496094 C 394.023438 260.742188 389.191406 274.949219 391.492188 289.109375 C 394.148438 305.421875 405.789062 318.742188 411.796875 334.148438 C 414.359375 340.730469 415.882812 347.667969 417.226562 354.648438 C 418.394531 352.929688 419.628906 351.269531 420.847656 349.640625 C 424.378906 344.914062 427.710938 340.414062 428.714844 335.324219 C 428.820312 334.773438 428.925781 334.222656 428.976562 333.65625 C 429.242188 330.6875 428.628906 327.816406 427.554688 324.964844 C 428.207031 327.503906 428.617188 330.078125 428.71875 332.691406 C 428.617188 330.078125 428.207031 327.503906 427.554688 324.964844 C 426.191406 321.34375 424.0625 317.753906 421.835938 314.050781 C 420.789062 312.308594 419.746094 310.578125 418.785156 308.839844 C 410.664062 294.125 407.980469 276.246094 411.417969 259.792969 C 411.753906 258.199219 413.296875 257.175781 414.878906 257.441406 C 416.476562 249.859375 418.398438 242.253906 419.378906 234.652344 C 418.398438 242.253906 416.476562 249.859375 414.878906 257.441406 C 414.917969 257.449219 414.953125 257.449219 414.992188 257.453125 C 416.625 257.796875 417.667969 259.398438 417.332031 261.03125 C 414.183594 276.089844 416.640625 292.453125 424.074219 305.921875 C 424.996094 307.59375 426.003906 309.261719 427.011719 310.9375 C 431.3125 318.089844 435.765625 325.492188 434.988281 334.1875 Z M 506.632812 528.90625 C 506.632812 530.574219 505.28125 531.925781 503.613281 531.925781 C 501.945312 531.925781 500.59375 530.574219 500.59375 528.90625 L 500.59375 527.832031 C 500.59375 526.164062 501.945312 524.8125 503.613281 524.8125 C 505.28125 524.8125 506.632812 526.164062 506.632812 527.832031 Z M 538.011719 556.609375 C 538.011719 558.277344 536.660156 559.628906 534.992188 559.628906 C 533.324219 559.628906 531.972656 558.277344 531.972656 556.609375 L 531.972656 544.734375 C 531.972656 543.066406 533.324219 541.714844 534.992188 541.714844 C 536.65625 541.714844 538.011719 543.066406 538.011719 544.734375 Z M 559.605469 516.40625 L 558.589844 525.03125 C 558.40625 526.566406 557.105469 527.695312 555.59375 527.695312 C 555.476562 527.695312 555.355469 527.691406 555.238281 527.675781 C 553.582031 527.480469 552.394531 525.980469 552.59375 524.324219 L 553.609375 515.699219 C 553.804688 514.042969 555.304688 512.828125 556.960938 513.054688 C 558.617188 513.25 559.800781 514.75 559.605469 516.40625 Z M 635.859375 350.371094 L 636.785156 349.296875 C 637.875 348.035156 639.777344 347.890625 641.042969 348.980469 C 642.304688 350.070312 642.445312 351.976562 641.355469 353.238281 L 640.429688 354.3125 C 639.832031 355.003906 638.988281 355.363281 638.140625 355.363281 C 637.441406 355.363281 636.742188 355.121094 636.171875 354.628906 C 634.910156 353.539062 634.769531 351.632812 635.859375 350.371094 Z M 640.546875 582.105469 C 640.410156 582.125 640.269531 582.136719 640.132812 582.136719 C 638.648438 582.136719 637.351562 581.039062 637.144531 579.527344 L 635.613281 568.476562 C 635.382812 566.828125 636.539062 565.300781 638.191406 565.074219 C 639.835938 564.855469 641.367188 566 641.597656 567.652344 L 643.128906 578.703125 C 643.355469 580.351562 642.203125 581.878906 640.546875 582.105469 Z M 657.410156 394.683594 C 656.984375 394.890625 656.535156 394.984375 656.09375 394.984375 C 654.972656 394.984375 653.898438 394.359375 653.375 393.285156 L 647.984375 382.160156 C 647.257812 380.660156 647.886719 378.855469 649.386719 378.125 C 650.886719 377.402344 652.695312 378.027344 653.417969 379.527344 L 658.808594 390.648438 C 659.535156 392.152344 658.910156 393.957031 657.410156 394.683594 Z M 666.058594 592.273438 C 665.902344 592.296875 665.75 592.308594 665.597656 592.308594 C 664.132812 592.308594 662.847656 591.242188 662.617188 589.75 L 661.160156 580.269531 C 660.90625 578.621094 662.035156 577.082031 663.6875 576.828125 C 665.3125 576.574219 666.875 577.703125 667.128906 579.355469 L 668.585938 588.832031 C 668.839844 590.480469 667.710938 592.019531 666.058594 592.273438 Z M 670.542969 547.636719 C 670.542969 549.304688 669.191406 550.65625 667.523438 550.65625 C 665.855469 550.65625 664.503906 549.304688 664.503906 547.636719 L 664.503906 535.765625 C 664.503906 534.097656 665.855469 532.746094 667.523438 532.746094 C 669.191406 532.746094 670.542969 534.097656 670.542969 535.765625 Z M 673.691406 374.90625 C 673.34375 375.035156 672.988281 375.097656 672.636719 375.097656 C 671.414062 375.097656 670.261719 374.347656 669.808594 373.132812 L 665.679688 362.070312 C 665.09375 360.507812 665.890625 358.773438 667.453125 358.1875 C 669.011719 357.609375 670.75 358.398438 671.335938 359.960938 L 675.464844 371.019531 C 676.050781 372.582031 675.257812 374.320312 673.691406 374.90625 Z M 694.464844 414.046875 C 694.117188 414.175781 693.761719 414.238281 693.410156 414.238281 C 692.1875 414.238281 691.035156 413.488281 690.582031 412.273438 L 686.453125 401.210938 C 685.867188 399.648438 686.664062 397.914062 688.226562 397.328125 C 689.789062 396.75 691.523438 397.539062 692.109375 399.101562 L 696.238281 410.160156 C 696.824219 411.722656 696.027344 413.460938 694.464844 414.046875 Z M 694.464844 414.046875 " fill-opacity="1" fill-rule="nonzero"/></g><path fill="rgb(92.549133%, 71.369934%, 83.529663%)" d="M 299.066406 212.828125 C 297.101562 222.515625 296.960938 229.960938 298.609375 236.113281 C 297.722656 227.246094 298.175781 218.808594 300.082031 210.402344 C 299.96875 210.296875 299.855469 210.1875 299.742188 210.082031 C 299.480469 210.992188 299.253906 211.90625 299.066406 212.828125 Z M 299.066406 212.828125 " fill-opacity="1" fill-rule="nonzero"/><path fill="rgb(8.628845%, 12.939453%, 23.919678%)" d="M 387.582031 538.792969 C 385.984375 538.351562 384.308594 539.277344 383.855469 540.882812 C 380.929688 551.28125 378.183594 562.34375 375.21875 575.703125 C 374.855469 577.332031 375.882812 578.941406 377.507812 579.304688 C 377.550781 579.316406 377.59375 579.3125 377.632812 579.316406 C 377.8125 579.351562 377.992188 579.378906 378.164062 579.378906 C 379.550781 579.378906 380.796875 578.417969 381.109375 577.011719 C 381.28125 576.246094 381.445312 575.515625 381.617188 574.765625 C 384.363281 562.527344 386.941406 552.210938 389.667969 542.519531 C 390.121094 540.914062 389.1875 539.246094 387.582031 538.792969 Z M 387.582031 538.792969 " fill-opacity="1" fill-rule="nonzero"/><path fill="rgb(8.628845%, 12.939453%, 23.919678%)" d="M 296.746094 629.246094 L 286.21875 579.085938 C 285.21875 573.359375 284.214844 567.636719 283.21875 561.914062 C 281.183594 550.238281 281.105469 533.828125 273.796875 524.367188 C 266.996094 515.574219 258.398438 508.523438 250.992188 500.097656 L 285.398438 604.558594 L 290.046875 626.71875 C 284.390625 627.550781 279.210938 630.644531 275.746094 635.140625 C 267.476562 627.25 253.878906 625.476562 244.03125 631.605469 C 242.613281 632.484375 242.179688 634.347656 243.058594 635.761719 C 243.941406 637.179688 245.804688 637.609375 247.21875 636.730469 C 255.574219 631.539062 267.949219 633.972656 273.710938 641.949219 C 274.28125 642.738281 275.191406 643.199219 276.15625 643.199219 C 276.242188 643.199219 276.332031 643.195312 276.417969 643.1875 C 277.476562 643.097656 278.40625 642.457031 278.871094 641.5 C 281.152344 636.816406 285.964844 633.34375 291.132812 632.65625 C 291.1875 632.648438 291.234375 632.628906 291.285156 632.617188 L 294.304688 647.003906 C 294.574219 648.273438 295.613281 649.148438 296.832031 649.328125 C 296.972656 649.351562 297.109375 649.402344 297.257812 649.402344 C 297.460938 649.402344 297.671875 649.382812 297.882812 649.339844 C 298.085938 649.296875 298.277344 649.234375 298.460938 649.152344 C 299.753906 648.597656 300.515625 647.191406 300.214844 645.761719 Z M 296.746094 629.246094 " fill-opacity="1" fill-rule="nonzero"/><path fill="rgb(8.628845%, 12.939453%, 23.919678%)" d="M 607.277344 636.78125 L 577.105469 535.46875 C 576.628906 533.871094 574.933594 532.957031 573.351562 533.4375 C 571.75 533.914062 570.839844 535.59375 571.316406 537.191406 L 583.421875 577.828125 C 581.289062 578.191406 579.128906 578.539062 576.925781 578.84375 C 556.664062 581.59375 537.363281 583.394531 519.011719 584.371094 L 519.003906 584.375 C 519.003906 584.375 521.199219 585.605469 524.859375 587.648438 C 541.191406 596.773438 586.859375 622.167969 598.113281 627.152344 L 598.65625 628.976562 C 593.269531 629.566406 588.214844 632.253906 584.644531 636.289062 C 582.195312 633.269531 578.921875 630.539062 574.75 628.015625 C 567.394531 623.566406 560.726562 622.261719 554.949219 624.144531 C 550.800781 625.496094 547.628906 628.347656 544.832031 630.867188 C 543.59375 631.980469 543.492188 633.890625 544.609375 635.128906 C 545.722656 636.367188 547.628906 636.472656 548.871094 635.355469 C 551.339844 633.136719 553.886719 630.839844 556.816406 629.886719 C 561.835938 628.246094 567.644531 630.773438 571.621094 633.179688 C 576.5625 636.167969 579.9375 639.390625 581.9375 643.027344 C 582.46875 643.992188 583.480469 644.59375 584.582031 644.59375 C 585.683594 644.59375 586.695312 643.992188 587.230469 643.03125 C 589.640625 638.648438 594.414062 635.484375 599.390625 634.96875 C 599.734375 634.929688 600.058594 634.828125 600.355469 634.6875 L 605.046875 650.441406 C 605.171875 650.863281 605.40625 651.214844 605.675781 651.53125 C 606.246094 652.1875 607.058594 652.601562 607.941406 652.601562 C 608.226562 652.601562 608.515625 652.5625 608.800781 652.476562 C 609.386719 652.300781 609.878906 651.964844 610.242188 651.53125 C 610.695312 650.992188 610.945312 650.304688 610.949219 649.585938 C 610.949219 649.296875 610.921875 649.007812 610.835938 648.71875 Z M 607.277344 636.78125 " fill-opacity="1" fill-rule="nonzero"/><path fill="rgb(8.628845%, 12.939453%, 23.919678%)" d="M 312.417969 598.382812 C 312.195312 596.726562 310.65625 595.550781 309.027344 595.785156 C 307.375 596.003906 306.210938 597.519531 306.429688 599.175781 L 308.101562 611.78125 C 308.304688 613.300781 309.597656 614.40625 311.089844 614.40625 C 311.222656 614.40625 311.355469 614.398438 311.492188 614.378906 C 313.144531 614.160156 314.308594 612.640625 314.089844 610.988281 Z M 312.417969 598.382812 " fill-opacity="1" fill-rule="nonzero"/><path fill="rgb(8.628845%, 12.939453%, 23.919678%)" d="M 361.4375 577.292969 C 361.605469 575.636719 360.398438 574.152344 358.738281 573.984375 C 357.117188 573.832031 355.597656 575.023438 355.429688 576.679688 C 354.953125 581.347656 355.445312 586.152344 356.859375 590.570312 C 357.269531 591.855469 358.457031 592.671875 359.734375 592.671875 C 360.039062 592.671875 360.351562 592.625 360.65625 592.527344 C 362.242188 592.019531 363.121094 590.320312 362.609375 588.730469 C 361.449219 585.097656 361.042969 581.144531 361.4375 577.292969 Z M 361.4375 577.292969 " fill-opacity="1" fill-rule="nonzero"/><path fill="rgb(8.628845%, 12.939453%, 23.919678%)" d="M 653.421875 379.527344 C 652.695312 378.027344 650.890625 377.402344 649.386719 378.125 C 647.886719 378.855469 647.261719 380.660156 647.988281 382.160156 L 653.378906 393.285156 C 653.898438 394.359375 654.976562 394.984375 656.097656 394.984375 C 656.539062 394.984375 656.988281 394.890625 657.410156 394.683594 C 658.910156 393.957031 659.539062 392.152344 658.8125 390.648438 Z M 653.421875 379.527344 " fill-opacity="1" fill-rule="nonzero"/><path fill="rgb(8.628845%, 12.939453%, 23.919678%)" d="M 692.109375 399.101562 C 691.523438 397.539062 689.789062 396.75 688.226562 397.328125 C 686.664062 397.910156 685.867188 399.648438 686.453125 401.210938 L 690.582031 412.269531 C 691.035156 413.488281 692.1875 414.234375 693.410156 414.234375 C 693.761719 414.234375 694.117188 414.175781 694.464844 414.042969 C 696.027344 413.460938 696.824219 411.722656 696.238281 410.160156 Z M 692.109375 399.101562 " fill-opacity="1" fill-rule="nonzero"/><path fill="rgb(8.628845%, 12.939453%, 23.919678%)" d="M 671.335938 359.960938 C 670.75 358.394531 669.007812 357.609375 667.453125 358.1875 C 665.890625 358.769531 665.09375 360.507812 665.679688 362.070312 L 669.808594 373.128906 C 670.261719 374.347656 671.414062 375.09375 672.636719 375.09375 C 672.988281 375.09375 673.34375 375.035156 673.691406 374.902344 C 675.253906 374.320312 676.050781 372.582031 675.464844 371.019531 Z M 671.335938 359.960938 " fill-opacity="1" fill-rule="nonzero"/><path fill="rgb(8.628845%, 12.939453%, 23.919678%)" d="M 667.523438 532.746094 C 665.855469 532.746094 664.503906 534.097656 664.503906 535.765625 L 664.503906 547.636719 C 664.503906 549.304688 665.855469 550.65625 667.523438 550.65625 C 669.191406 550.65625 670.542969 549.304688 670.542969 547.636719 L 670.542969 535.765625 C 670.542969 534.101562 669.1875 532.746094 667.523438 532.746094 Z M 667.523438 532.746094 " fill-opacity="1" fill-rule="nonzero"/><path fill="rgb(8.628845%, 12.939453%, 23.919678%)" d="M 531.972656 544.734375 L 531.972656 556.609375 C 531.972656 558.277344 533.324219 559.628906 534.992188 559.628906 C 536.65625 559.628906 538.011719 558.277344 538.011719 556.609375 L 538.011719 544.734375 C 538.011719 543.066406 536.660156 541.714844 534.992188 541.714844 C 533.324219 541.714844 531.972656 543.066406 531.972656 544.734375 Z M 531.972656 544.734375 " fill-opacity="1" fill-rule="nonzero"/><path fill="rgb(8.628845%, 12.939453%, 23.919678%)" d="M 667.128906 579.355469 C 666.875 577.703125 665.3125 576.574219 663.6875 576.828125 C 662.039062 577.082031 660.910156 578.621094 661.160156 580.269531 L 662.617188 589.75 C 662.847656 591.242188 664.132812 592.308594 665.597656 592.308594 C 665.75 592.308594 665.90625 592.296875 666.0625 592.273438 C 667.710938 592.019531 668.839844 590.480469 668.585938 588.832031 Z M 667.128906 579.355469 " fill-opacity="1" fill-rule="nonzero"/><path fill="rgb(8.628845%, 12.939453%, 23.919678%)" d="M 641.597656 567.652344 C 641.367188 565.996094 639.835938 564.855469 638.195312 565.070312 C 636.539062 565.300781 635.386719 566.824219 635.613281 568.476562 L 637.144531 579.527344 C 637.355469 581.039062 638.648438 582.132812 640.132812 582.132812 C 640.269531 582.132812 640.410156 582.125 640.550781 582.105469 C 642.203125 581.875 643.355469 580.351562 643.128906 578.699219 Z M 641.597656 567.652344 " fill-opacity="1" fill-rule="nonzero"/><path fill="rgb(8.628845%, 12.939453%, 23.919678%)" d="M 638.140625 355.359375 C 638.992188 355.359375 639.832031 355.003906 640.429688 354.3125 L 641.355469 353.238281 C 642.445312 351.976562 642.304688 350.070312 641.042969 348.980469 C 639.78125 347.890625 637.875 348.035156 636.785156 349.296875 L 635.859375 350.367188 C 634.769531 351.628906 634.910156 353.539062 636.171875 354.625 C 636.742188 355.117188 637.445312 355.359375 638.140625 355.359375 Z M 638.140625 355.359375 " fill-opacity="1" fill-rule="nonzero"/><path fill="rgb(8.628845%, 12.939453%, 23.919678%)" d="M 553.609375 515.699219 L 552.59375 524.324219 C 552.394531 525.980469 553.582031 527.480469 555.238281 527.675781 C 555.355469 527.691406 555.476562 527.699219 555.59375 527.699219 C 557.101562 527.699219 558.40625 526.570312 558.589844 525.03125 L 559.605469 516.410156 C 559.800781 514.75 558.617188 513.25 556.960938 513.058594 C 555.304688 512.832031 553.804688 514.042969 553.609375 515.699219 Z M 553.609375 515.699219 " fill-opacity="1" fill-rule="nonzero"/><path fill="rgb(8.628845%, 12.939453%, 23.919678%)" d="M 503.613281 524.8125 C 501.945312 524.8125 500.59375 526.164062 500.59375 527.832031 L 500.59375 528.90625 C 500.59375 530.574219 501.945312 531.925781 503.613281 531.925781 C 505.28125 531.925781 506.632812 530.574219 506.632812 528.90625 L 506.632812 527.832031 C 506.632812 526.167969 505.277344 524.8125 503.613281 524.8125 Z M 503.613281 524.8125 " fill-opacity="1" fill-rule="nonzero"/><path fill="rgb(8.628845%, 12.939453%, 23.919678%)" d="M 226.328125 317.257812 C 226.386719 317.210938 226.460938 317.191406 226.511719 317.140625 C 227.703125 315.96875 227.71875 314.058594 226.550781 312.867188 C 223.519531 309.78125 217.351562 307.941406 214.175781 307.507812 C 207.230469 306.558594 194.0625 308.480469 188.691406 321.011719 C 188.671875 321.054688 188.65625 321.101562 188.640625 321.144531 C 188.316406 321.59375 187.980469 322.039062 187.707031 322.523438 C 187.671875 322.585938 187.640625 322.65625 187.609375 322.71875 C 187.222656 323.421875 186.886719 324.15625 186.621094 324.9375 C 186.066406 326.554688 185.824219 328.332031 186.285156 329.976562 C 186.324219 330.113281 186.386719 330.234375 186.433594 330.367188 C 186.757812 331.285156 187.261719 332.105469 187.914062 332.820312 C 188.164062 333.09375 188.433594 333.351562 188.714844 333.597656 C 189.144531 333.96875 189.609375 334.296875 190.089844 334.609375 C 190.890625 335.128906 191.746094 335.578125 192.605469 335.953125 C 192.617188 335.960938 192.632812 335.964844 192.648438 335.96875 C 193.648438 336.402344 194.671875 336.761719 195.714844 337.0625 C 196.429688 337.269531 197.160156 337.421875 197.890625 337.566406 C 198.199219 337.628906 198.5 337.714844 198.808594 337.765625 C 199.773438 337.925781 200.746094 338.039062 201.722656 338.101562 C 201.777344 338.101562 201.832031 338.109375 201.882812 338.113281 C 202.925781 338.175781 203.976562 338.183594 205.023438 338.136719 C 206.71875 330.058594 207.003906 322.160156 203.515625 314.636719 C 208.34375 312.878906 212.992188 313.441406 213.359375 313.496094 C 216.269531 313.894531 220.6875 315.519531 222.242188 317.105469 C 223.359375 318.238281 225.136719 318.269531 226.328125 317.257812 Z M 226.328125 317.257812 " fill-opacity="1" fill-rule="nonzero"/><path fill="rgb(8.628845%, 12.939453%, 23.919678%)" d="M 261.839844 414.953125 C 282.953125 408.554688 288.417969 401.945312 298.339844 389.953125 C 301.019531 386.710938 304.058594 383.035156 307.863281 378.800781 C 308.980469 377.558594 308.878906 375.652344 307.636719 374.535156 C 306.390625 373.417969 304.484375 373.527344 303.375 374.761719 C 299.488281 379.089844 296.40625 382.816406 293.6875 386.105469 C 283.917969 397.910156 279.460938 403.296875 260.089844 409.171875 L 258.21875 409.746094 C 251.558594 411.816406 240.519531 415.203125 225.679688 415.816406 C 225.214844 415.835938 224.78125 415.875 224.3125 415.890625 C 222.644531 415.9375 221.332031 417.328125 221.378906 418.996094 C 221.382812 419.125 221.410156 419.25 221.425781 419.375 C 221.65625 420.824219 222.898438 421.929688 224.394531 421.929688 C 224.425781 421.929688 224.453125 421.929688 224.484375 421.925781 C 240.863281 421.457031 253.316406 417.59375 260.007812 415.515625 Z M 261.839844 414.953125 " fill-opacity="1" fill-rule="nonzero"/><path fill="rgb(8.628845%, 12.939453%, 23.919678%)" d="M 132.75 549.460938 C 122.011719 550.109375 113.929688 548.859375 103.902344 544.976562 C 102.34375 544.371094 100.597656 545.144531 99.996094 546.699219 C 99.394531 548.253906 100.164062 550.003906 101.71875 550.605469 C 110.746094 554.101562 118.59375 555.660156 127.679688 555.660156 C 129.441406 555.660156 131.25 555.601562 133.121094 555.488281 C 134.785156 555.386719 136.050781 553.953125 135.949219 552.289062 C 135.84375 550.628906 134.429688 549.359375 132.75 549.460938 Z M 132.75 549.460938 " fill-opacity="1" fill-rule="nonzero"/><path fill="rgb(8.628845%, 12.939453%, 23.919678%)" d="M 121.117188 529.652344 C 122.746094 529.652344 124.085938 528.359375 124.132812 526.722656 C 124.183594 525.058594 122.871094 523.667969 121.207031 523.617188 C 112.867188 523.371094 108.929688 522.582031 101.136719 519.597656 C 99.582031 519.007812 97.839844 519.78125 97.238281 521.339844 C 96.640625 522.898438 97.421875 524.644531 98.980469 525.242188 C 107.441406 528.476562 111.972656 529.386719 121.027344 529.652344 C 121.058594 529.652344 121.089844 529.652344 121.117188 529.652344 Z M 121.117188 529.652344 " fill-opacity="1" fill-rule="nonzero"/><path fill="rgb(8.628845%, 12.939453%, 23.919678%)" d="M 114.070312 499.265625 C 110.652344 499 107.261719 497.992188 104.261719 496.347656 C 102.800781 495.550781 100.964844 496.082031 100.164062 497.542969 C 99.359375 499.007812 99.898438 500.84375 101.359375 501.644531 C 105.105469 503.695312 109.339844 504.953125 113.605469 505.285156 C 113.683594 505.292969 113.761719 505.296875 113.84375 505.296875 C 115.402344 505.296875 116.726562 504.09375 116.847656 502.511719 C 116.976562 500.84375 115.734375 499.390625 114.070312 499.265625 Z M 114.070312 499.265625 " fill-opacity="1" fill-rule="nonzero"/><path fill="rgb(8.628845%, 12.939453%, 23.919678%)" d="M 163.605469 312.742188 C 160.09375 311.722656 157.441406 311.144531 155.308594 310.679688 C 150.21875 309.570312 147.894531 309.0625 141.367188 304.082031 C 140.039062 303.070312 138.144531 303.324219 137.136719 304.652344 C 136.121094 305.980469 136.378906 307.875 137.707031 308.886719 C 145.300781 314.675781 148.582031 315.390625 154.023438 316.578125 C 156.175781 317.046875 158.609375 317.582031 161.921875 318.539062 C 162.203125 318.625 162.488281 318.660156 162.765625 318.660156 C 164.074219 318.660156 165.28125 317.804688 165.664062 316.484375 C 166.128906 314.878906 165.207031 313.203125 163.605469 312.742188 Z M 163.605469 312.742188 " fill-opacity="1" fill-rule="nonzero"/><path fill="rgb(8.628845%, 12.939453%, 23.919678%)" d="M 378.09375 190.9375 C 388.363281 200.386719 393.996094 214.351562 393.167969 228.28125 C 393.066406 229.941406 394.335938 231.375 396 231.472656 C 396.085938 231.480469 396.167969 231.46875 396.25 231.464844 C 397.824219 231.453125 399.101562 230.214844 399.191406 228.636719 C 400.128906 212.914062 393.769531 197.160156 382.179688 186.492188 C 376.386719 181.164062 369.089844 176.953125 361.082031 174.328125 C 342.171875 168.117188 320.421875 173.722656 305.679688 188.609375 C 299.308594 195.042969 294.855469 203.214844 293.148438 211.625 C 292.203125 216.265625 291.664062 220.457031 291.492188 224.3125 C 291.242188 230.058594 291.824219 235.039062 293.285156 239.503906 C 293.703125 240.777344 294.886719 241.585938 296.15625 241.585938 C 296.46875 241.585938 296.78125 241.539062 297.097656 241.4375 C 298.039062 241.128906 298.714844 240.398438 299.007812 239.523438 C 299.210938 238.929688 299.238281 238.269531 299.027344 237.625 C 298.863281 237.132812 298.742188 236.617188 298.605469 236.109375 C 296.957031 229.960938 297.097656 222.515625 299.0625 212.824219 C 299.25 211.90625 299.476562 210.988281 299.742188 210.078125 C 300.148438 208.671875 300.664062 207.277344 301.242188 205.90625 C 303.238281 201.152344 306.203125 196.660156 309.96875 192.863281 C 323.117188 179.585938 342.449219 174.566406 359.199219 180.0625 C 366.398438 182.425781 372.929688 186.1875 378.09375 190.9375 Z M 378.09375 190.9375 " fill-opacity="1" fill-rule="nonzero"/><path fill="rgb(8.628845%, 12.939453%, 23.919678%)" d="M 424.070312 305.917969 C 416.636719 292.449219 414.179688 276.085938 417.324219 261.023438 C 417.664062 259.390625 416.617188 257.792969 414.988281 257.449219 C 414.949219 257.441406 414.914062 257.441406 414.875 257.4375 C 413.292969 257.167969 411.75 258.191406 411.414062 259.789062 C 407.976562 276.242188 410.660156 294.117188 418.78125 308.835938 C 419.742188 310.570312 420.78125 312.304688 421.832031 314.046875 C 424.058594 317.746094 426.1875 321.335938 427.550781 324.957031 C 428.625 327.808594 429.238281 330.683594 428.972656 333.648438 C 428.921875 334.214844 428.816406 334.765625 428.710938 335.316406 L 428.710938 335.320312 C 427.707031 340.410156 424.375 344.90625 420.84375 349.632812 C 419.625 351.265625 418.390625 352.925781 417.222656 354.640625 C 415.992188 356.453125 414.839844 358.328125 413.878906 360.3125 C 410.273438 367.75 409.578125 376.097656 408.90625 384.167969 C 408.101562 393.859375 407.339844 403.015625 401.726562 409.753906 C 397.433594 414.90625 391.03125 417.695312 384.253906 420.652344 C 381.988281 421.640625 379.644531 422.660156 377.390625 423.777344 C 366.066406 429.386719 355.902344 438.082031 348 448.933594 C 347.933594 449.023438 347.886719 449.125 347.832031 449.21875 C 347.078125 450.535156 347.40625 452.234375 348.664062 453.148438 C 349.199219 453.539062 349.820312 453.726562 350.4375 453.726562 C 351.371094 453.726562 352.289062 453.296875 352.878906 452.484375 C 360.210938 442.421875 369.613281 434.367188 380.070312 429.1875 C 382.191406 428.136719 384.46875 427.144531 386.667969 426.183594 C 393.789062 423.082031 401.15625 419.867188 406.363281 413.617188 C 413.199219 405.410156 414.074219 394.867188 414.925781 384.667969 C 415.578125 376.800781 416.195312 369.371094 419.3125 362.945312 C 420.933594 359.597656 423.238281 356.511719 425.679688 353.25 C 429.925781 347.566406 434.316406 341.691406 434.988281 334.1875 C 435.765625 325.492188 431.3125 318.089844 427.003906 310.929688 C 425.996094 309.253906 424.992188 307.585938 424.070312 305.917969 Z M 424.070312 305.917969 " fill-opacity="1" fill-rule="nonzero"/></svg>