<svg xmlns="http://www.w3.org/2000/svg" xmlns:xlink="http://www.w3.org/1999/xlink" width="1080" zoomAndPan="magnify" viewBox="0 0 810 809.999993" height="1080" preserveAspectRatio="xMidYMid meet" version="1.0"><defs><clipPath id="id1"><path d="M 575 391 L 633.226562 391 L 633.226562 450 L 575 450 Z M 575 391 " clip-rule="nonzero"/></clipPath></defs><rect x="-81" width="972" fill="rgb(100%, 100%, 100%)" y="-80.999999" height="971.999992" fill-opacity="1"/><rect x="-81" width="972" fill="rgb(100%, 100%, 100%)" y="-80.999999" height="971.999992" fill-opacity="1"/><rect x="-81" width="972" fill="rgb(100%, 8.628845%, 8.628845%)" y="-80.999999" height="971.999992" fill-opacity="1"/><path fill="rgb(90.589905%, 54.899597%, 22.349548%)" d="M 489.914062 609.292969 C 492.648438 609.492188 495.402344 609.585938 498.152344 609.585938 C 516.160156 609.570312 534.183594 605.460938 548.097656 596.453125 C 555.046875 591.949219 560.953125 586.171875 565.113281 579.070312 C 569.28125 571.96875 571.640625 563.5625 571.632812 554.082031 C 571.632812 549.441406 571.078125 544.546875 569.921875 539.40625 C 567.945312 530.589844 565.742188 521.703125 564.050781 513.015625 C 562.351562 504.324219 561.167969 495.847656 561.175781 487.886719 C 561.175781 478.285156 562.867188 469.523438 567.265625 461.746094 C 571.679688 453.980469 578.851562 447 590.570312 441.128906 L 586.765625 433.519531 C 573.867188 439.941406 565.164062 448.15625 559.863281 457.550781 C 554.539062 466.941406 552.660156 477.3125 552.660156 487.886719 C 552.660156 496.679688 553.941406 505.671875 555.695312 514.648438 C 557.445312 523.621094 559.671875 532.578125 561.617188 541.269531 C 562.648438 545.859375 563.117188 550.121094 563.117188 554.082031 C 563.113281 562.175781 561.164062 568.960938 557.769531 574.769531 C 555.21875 579.117188 551.835938 582.921875 547.761719 586.207031 C 541.65625 591.136719 533.972656 594.867188 525.441406 597.351562 C 516.910156 599.835938 507.546875 601.074219 498.152344 601.066406 C 495.601562 601.066406 493.050781 600.980469 490.507812 600.800781 L 489.914062 609.292969 " fill-opacity="1" fill-rule="nonzero"/><path fill="rgb(71.759033%, 43.139648%, 17.248535%)" d="M 526.238281 671.828125 L 468.175781 650.863281 C 515.628906 595.808594 513.839844 551.800781 513.839844 551.800781 C 520.824219 487.773438 464.542969 494.296875 464.542969 494.296875 L 388.414062 494.347656 L 387.152344 494.347656 L 311.019531 494.40625 C 311.019531 494.40625 254.722656 487.972656 261.816406 551.984375 C 261.816406 551.984375 260.089844 596 307.621094 650.980469 L 249.59375 672.03125 C 249.59375 672.03125 235.523438 677.039062 241.683594 690.039062 C 241.683594 690.039062 254.015625 706.035156 304.125 678.988281 L 330.496094 665.964844 C 330.496094 665.964844 346.320312 662.953125 338.402344 647.953125 L 387.269531 656.214844 L 387.269531 656.425781 L 387.902344 656.324219 L 388.53125 656.425781 L 388.53125 656.207031 L 437.394531 647.882812 C 429.492188 662.894531 445.328125 665.878906 445.328125 665.878906 L 471.714844 678.871094 C 521.867188 705.835938 534.164062 689.820312 534.164062 689.820312 C 540.308594 676.816406 526.238281 671.828125 526.238281 671.828125 " fill-opacity="1" fill-rule="nonzero"/><path fill="rgb(90.589905%, 54.899597%, 22.349548%)" d="M 452.691406 696.769531 L 470.640625 610.933594 L 485.507812 534.019531 C 495.398438 473.085938 466.75 406.574219 466.75 406.574219 C 443.4375 360.167969 432.777344 340.628906 432.777344 340.628906 L 389.054688 337.035156 L 345.335938 340.695312 C 345.335938 340.695312 322.242188 373.355469 299.003906 419.800781 C 299.003906 419.800781 278.34375 467.792969 293.101562 551.761719 L 314.804688 624.945312 L 325.957031 696.863281 C 325.957031 696.863281 300.894531 702.777344 310.894531 715.027344 C 310.894531 715.027344 324.957031 725.171875 340.851562 715 C 340.851562 715 354.355469 708.445312 350.371094 696.84375 L 367.785156 588.757812 C 367.785156 588.757812 371.753906 592.382812 389.246094 593.097656 C 406.730469 592.351562 410.699219 588.730469 410.699219 588.730469 L 428.277344 696.785156 C 424.300781 708.386719 437.816406 714.929688 437.816406 714.929688 C 453.734375 725.070312 467.777344 714.902344 467.777344 714.902344 C 479.4375 707.640625 452.691406 696.769531 452.691406 696.769531 " fill-opacity="1" fill-rule="nonzero"/><path fill="rgb(74.119568%, 73.728943%, 74.119568%)" d="M 313.5625 716.585938 C 313.453125 716.585938 313.0625 716.46875 311.703125 715.542969 C 312.15625 715.820312 312.796875 716.183594 313.597656 716.582031 C 313.589844 716.582031 313.585938 716.585938 313.5625 716.585938 " fill-opacity="1" fill-rule="nonzero"/><path fill="rgb(67.059326%, 40.388489%, 16.079712%)" d="M 313.597656 716.582031 C 312.796875 716.183594 312.15625 715.820312 311.703125 715.542969 C 311.6875 715.535156 311.675781 715.53125 311.667969 715.523438 C 311.667969 715.523438 308.53125 708.613281 317.777344 706.015625 C 317.777344 706.015625 309.414062 710.269531 313.605469 716.574219 C 313.605469 716.574219 313.605469 716.574219 313.597656 716.582031 " fill-opacity="1" fill-rule="nonzero"/><path fill="rgb(74.119568%, 73.728943%, 74.119568%)" d="M 321.152344 719.183594 C 320.824219 719.183594 320.289062 719.109375 319.609375 718.753906 C 320.222656 718.898438 320.863281 719.03125 321.523438 719.144531 C 321.496094 719.152344 321.371094 719.183594 321.152344 719.183594 " fill-opacity="1" fill-rule="nonzero"/><path fill="rgb(67.059326%, 40.388489%, 16.079712%)" d="M 321.523438 719.144531 C 320.863281 719.03125 320.222656 718.898438 319.609375 718.753906 C 319.601562 718.746094 319.59375 718.742188 319.589844 718.742188 C 319.589844 718.742188 316.332031 711.570312 325.574219 708.96875 C 325.574219 708.96875 317.34375 712.839844 321.53125 719.144531 C 321.53125 719.144531 321.523438 719.144531 321.523438 719.144531 " fill-opacity="1" fill-rule="nonzero"/><path fill="rgb(67.059326%, 40.388489%, 16.079712%)" d="M 464.574219 716.652344 C 464.542969 716.652344 464.535156 716.644531 464.535156 716.644531 C 468.703125 710.335938 460.347656 706.085938 460.347656 706.085938 C 469.597656 708.671875 466.464844 715.589844 466.464844 715.589844 C 465.078125 716.539062 464.6875 716.652344 464.574219 716.652344 " fill-opacity="1" fill-rule="nonzero"/><path fill="rgb(74.119568%, 73.728943%, 74.119568%)" d="M 456.980469 719.261719 C 456.742188 719.261719 456.609375 719.230469 456.609375 719.230469 C 456.628906 719.191406 456.648438 719.15625 456.675781 719.125 C 457.328125 719.023438 457.96875 718.898438 458.578125 718.761719 C 458.5625 718.800781 458.550781 718.828125 458.550781 718.828125 C 457.863281 719.191406 457.316406 719.261719 456.980469 719.261719 " fill-opacity="1" fill-rule="nonzero"/><path fill="rgb(67.059326%, 40.388489%, 16.079712%)" d="M 456.675781 719.125 C 460.699219 712.875 452.546875 709.046875 452.546875 709.046875 C 461.300781 711.503906 458.867188 718.066406 458.578125 718.761719 C 457.96875 718.898438 457.328125 719.023438 456.675781 719.125 " fill-opacity="1" fill-rule="nonzero"/><path fill="rgb(59.609985%, 10.978699%, 7.449341%)" d="M 503.121094 175.335938 C 503.121094 175.335938 503.113281 185.867188 503.121094 175.335938 C 503.132812 164.808594 542.851562 175.300781 542.851562 175.300781 C 503.054688 84.597656 428.054688 138.113281 428.054688 138.113281 C 416.507812 90.105469 364.84375 96.835938 364.84375 96.835938 C 389.410156 113.25 386.382812 146.871094 386.382812 146.871094 C 374.363281 105.03125 313.789062 118.746094 313.789062 118.746094 C 313.789062 118.746094 205 130.449219 177.90625 252.351562 C 177.90625 252.351562 213.03125 235.199219 241.621094 233.003906 C 241.621094 233.003906 176.542969 251.136719 177.964844 332.601562 C 177.964844 332.601562 189.75 303.144531 231.296875 313.300781 C 231.296875 313.300781 308.113281 252.753906 392.96875 255.65625 L 538.605469 308.332031 C 549.550781 252.074219 594.007812 300.910156 594.007812 300.910156 C 594.007812 300.910156 575.5625 191.265625 503.121094 175.335938 " fill-opacity="1" fill-rule="nonzero"/><path fill="rgb(90.589905%, 54.899597%, 22.349548%)" d="M 501.164062 301.796875 C 496.699219 279.917969 479.3125 256.671875 492.082031 235.21875 C 492.082031 235.21875 507.226562 223.800781 502.0625 166.308594 C 502.0625 166.308594 492.628906 130.628906 457.363281 155.769531 C 457.363281 155.769531 443.800781 176.734375 435.617188 216.789062 C 435.617188 216.789062 410.957031 219.546875 382.898438 219.910156 C 353.476562 219.578125 337.082031 216.863281 337.082031 216.863281 C 328.828125 176.820312 319.945312 166.441406 319.945312 166.441406 C 277.550781 122.632812 268.097656 176.847656 268.097656 176.847656 C 257.421875 227.238281 280.621094 235.363281 280.636719 235.378906 C 283.886719 241.878906 284.375 249.398438 284.070312 256.542969 C 283.246094 275.894531 272.792969 293.21875 270.515625 312.089844 C 267.476562 337.109375 274.214844 353.753906 289.445312 369.539062 C 296.199219 376.542969 307.460938 387.675781 313.992188 393.601562 C 319.324219 398.453125 322.96875 408.742188 331.941406 415.355469 C 331.941406 415.355469 363.324219 437.6875 385.75 437.675781 C 419.214844 437.648438 439.726562 408.761719 439.726562 408.761719 C 477.773438 391.515625 498.59375 357.425781 502.0625 313.625 C 502.367188 309.734375 501.976562 305.789062 501.164062 301.796875 " fill-opacity="1" fill-rule="nonzero"/><path fill="rgb(98.039246%, 73.728943%, 63.529968%)" d="M 338.105469 417.460938 C 338.105469 417.460938 359.652344 436.78125 385.15625 436.996094 C 385.15625 436.996094 411.445312 442.835938 435.570312 413.742188 C 435.570312 413.742188 444.472656 395.28125 419.425781 384.035156 L 356.835938 384.082031 C 356.835938 384.082031 333.300781 391.058594 338.105469 417.460938 " fill-opacity="1" fill-rule="nonzero"/><path fill="rgb(89.7995%, 43.528748%, 22.349548%)" d="M 277.714844 345.003906 C 277.714844 345.003906 287.246094 356.191406 327.074219 347.605469 C 327.074219 347.605469 317.066406 359.578125 282.292969 354.652344 C 282.292969 354.652344 279.164062 348.75 277.714844 345.003906 " fill-opacity="1" fill-rule="nonzero"/><path fill="rgb(98.039246%, 73.728943%, 63.529968%)" d="M 439.707031 375.464844 C 439.710938 382.84375 421.921875 388.839844 409.628906 388.84375 C 397.332031 388.851562 387.363281 382.878906 387.355469 375.503906 C 387.347656 368.136719 390.242188 352.273438 402.535156 352.265625 C 414.835938 352.257812 439.699219 368.105469 439.707031 375.464844 " fill-opacity="1" fill-rule="nonzero"/><path fill="rgb(98.039246%, 73.728943%, 63.529968%)" d="M 387.394531 375.503906 C 387.410156 382.878906 377.441406 388.863281 365.148438 388.871094 C 352.847656 388.878906 336.148438 382.917969 336.140625 375.550781 C 336.136719 368.175781 357.015625 353.058594 369.316406 353.050781 C 381.609375 353.046875 387.390625 368.136719 387.394531 375.503906 " fill-opacity="1" fill-rule="nonzero"/><path fill="rgb(40.388489%, 18.818665%, 9.01947%)" d="M 369.660156 356.296875 C 369.660156 356.296875 378.089844 367.484375 386.410156 373.449219 C 386.410156 373.449219 400.355469 360.800781 402.535156 356.25 C 402.535156 356.25 388.683594 348.914062 369.660156 356.296875 " fill-opacity="1" fill-rule="nonzero"/><path fill="rgb(79.998779%, 48.239136%, 19.60907%)" d="M 422.523438 304.921875 C 422.523438 304.921875 416.605469 345.308594 445.054688 355.726562 C 445.054688 355.726562 400.023438 345.175781 414.054688 298.863281 C 414.054688 298.863281 419.453125 304.300781 422.523438 304.921875 " fill-opacity="1" fill-rule="nonzero"/><path fill="rgb(13.729858%, 12.159729%, 12.548828%)" d="M 414.695312 295.957031 C 414.695312 295.957031 402.007812 327.414062 422.542969 342.082031 C 422.542969 342.082031 405.996094 331.589844 415.210938 297.183594 L 414.695312 295.957031 " fill-opacity="1" fill-rule="nonzero"/><path fill="rgb(70.979309%, 72.938538%, 16.079712%)" d="M 457.328125 282.753906 C 457.328125 282.753906 427.816406 261.066406 413.929688 299.207031 C 413.929688 299.207031 427.847656 312.28125 443.992188 307.261719 C 443.992188 307.261719 459.011719 302.234375 457.328125 282.753906 " fill-opacity="1" fill-rule="nonzero"/><path fill="rgb(63.139343%, 64.709473%, 14.118958%)" d="M 457.328125 282.753906 C 457.328125 282.753906 445.003906 273.703125 432.539062 277.582031 C 440.96875 278.664062 447.578125 283.515625 447.578125 283.515625 C 449.261719 303 434.234375 308.015625 434.234375 308.015625 C 433.972656 308.101562 433.714844 308.160156 433.449219 308.238281 C 436.757812 308.601562 440.304688 308.40625 443.992188 307.261719 C 443.992188 307.261719 459.011719 302.234375 457.328125 282.753906 " fill-opacity="1" fill-rule="nonzero"/><path fill="rgb(13.729858%, 12.159729%, 12.548828%)" d="M 414.523438 299.273438 C 425.628906 262.976562 457.507812 285.09375 457.75 284.703125 L 457.75 283.15625 C 457.746094 282.371094 457.707031 281.570312 457.632812 280.726562 C 457.632812 280.726562 428.117188 259.027344 414.234375 297.171875 C 414.234375 297.171875 413.84375 298.597656 413.929688 299.207031 C 414.003906 299.820312 413.929688 299.207031 413.929688 299.207031 L 414.523438 299.273438 " fill-opacity="1" fill-rule="nonzero"/><path fill="rgb(13.729858%, 12.159729%, 12.548828%)" d="M 426.449219 291.6875 C 426.308594 298.566406 432.246094 303.820312 435.570312 303.886719 C 438.898438 303.949219 444.367188 298.644531 444.515625 291.773438 C 444.652344 284.886719 439.414062 279.039062 436.078125 278.972656 C 432.75 278.902344 426.585938 284.808594 426.449219 291.6875 " fill-opacity="1" fill-rule="nonzero"/><path fill="rgb(100%, 100%, 100%)" d="M 436.152344 285.199219 C 435.722656 287.578125 437.328125 289.855469 439.71875 290.292969 C 442.109375 290.730469 444.414062 289.148438 444.835938 286.777344 C 445.273438 284.390625 443.675781 282.113281 441.277344 281.675781 C 438.871094 281.242188 436.585938 282.820312 436.152344 285.199219 " fill-opacity="1" fill-rule="nonzero"/><path fill="rgb(13.729858%, 12.159729%, 12.548828%)" d="M 457.328125 282.753906 C 457.328125 282.753906 457.144531 282.628906 456.8125 282.402344 C 458.140625 301.394531 443.4375 306.324219 443.4375 306.324219 C 429.394531 310.691406 417.027344 301.367188 414.054688 298.863281 L 413.929688 299.207031 C 413.929688 299.207031 427.847656 312.28125 443.992188 307.261719 C 443.992188 307.261719 459.011719 302.234375 457.328125 282.753906 " fill-opacity="1" fill-rule="nonzero"/><path fill="rgb(13.729858%, 12.159729%, 12.548828%)" d="M 451.871094 279.765625 C 451.871094 279.765625 455.664062 282.3125 455.890625 283.96875 C 455.890625 283.96875 457.414062 288.304688 456.65625 292.5 C 456.65625 292.5 458.835938 284.476562 457.632812 280.726562 L 451.871094 279.765625 " fill-opacity="1" fill-rule="nonzero"/><path fill="rgb(79.998779%, 48.239136%, 19.60907%)" d="M 349.03125 310.097656 C 349.03125 310.097656 355.015625 350.476562 326.570312 360.933594 C 326.570312 360.933594 371.589844 350.308594 357.476562 304.023438 C 357.476562 304.023438 352.089844 309.476562 349.03125 310.097656 " fill-opacity="1" fill-rule="nonzero"/><path fill="rgb(13.729858%, 12.159729%, 12.548828%)" d="M 357.234375 300.652344 C 357.234375 300.652344 369.96875 332.097656 349.453125 346.792969 C 349.453125 346.792969 365.972656 336.273438 356.71875 301.890625 L 357.234375 300.652344 " fill-opacity="1" fill-rule="nonzero"/><path fill="rgb(70.979309%, 72.938538%, 16.079712%)" d="M 314.582031 287.511719 C 314.582031 287.511719 344.054688 265.777344 358 303.910156 C 358 303.910156 344.101562 317 327.957031 312.003906 C 327.957031 312.003906 312.921875 307.003906 314.582031 287.511719 " fill-opacity="1" fill-rule="nonzero"/><path fill="rgb(63.139343%, 64.709473%, 14.118958%)" d="M 314.582031 287.511719 C 314.582031 287.511719 326.894531 278.453125 339.367188 282.3125 C 330.929688 283.40625 324.332031 288.265625 324.332031 288.265625 C 322.679688 307.75 337.707031 312.746094 337.707031 312.746094 C 337.972656 312.832031 338.230469 312.890625 338.492188 312.964844 C 335.191406 313.339844 331.628906 313.140625 327.957031 312.003906 C 327.957031 312.003906 312.921875 307.003906 314.582031 287.511719 " fill-opacity="1" fill-rule="nonzero"/><path fill="rgb(13.729858%, 12.159729%, 12.548828%)" d="M 357.40625 303.976562 C 346.242188 267.695312 314.402344 289.855469 314.164062 289.46875 L 314.164062 287.925781 C 314.164062 287.132812 314.199219 286.328125 314.269531 285.484375 C 314.269531 285.484375 343.75 263.75 357.695312 301.875 C 357.695312 301.875 358.085938 303.296875 358 303.910156 C 357.925781 304.511719 358 303.910156 358 303.910156 L 357.40625 303.976562 " fill-opacity="1" fill-rule="nonzero"/><path fill="rgb(13.729858%, 12.159729%, 12.548828%)" d="M 345.363281 297.238281 C 344.980469 304.109375 338.746094 308.867188 335.414062 308.6875 C 332.085938 308.503906 326.140625 301.722656 326.53125 294.851562 C 326.902344 287.980469 333.460938 283.625 336.777344 283.8125 C 340.105469 283.988281 345.734375 290.367188 345.363281 297.238281 " fill-opacity="1" fill-rule="nonzero"/><path fill="rgb(100%, 100%, 100%)" d="M 336.234375 290.015625 C 336.492188 292.421875 334.730469 294.574219 332.3125 294.824219 C 329.878906 295.082031 327.714844 293.332031 327.460938 290.925781 C 327.210938 288.527344 328.976562 286.367188 331.394531 286.117188 C 333.816406 285.867188 335.992188 287.605469 336.234375 290.015625 " fill-opacity="1" fill-rule="nonzero"/><path fill="rgb(13.729858%, 12.159729%, 12.548828%)" d="M 314.582031 287.511719 C 314.582031 287.511719 314.765625 287.386719 315.097656 287.160156 C 313.800781 306.15625 328.511719 311.0625 328.511719 311.0625 C 342.554688 315.410156 354.902344 306.066406 357.875 303.566406 L 358 303.910156 C 358 303.910156 344.101562 317 327.957031 312.003906 C 327.957031 312.003906 312.921875 307.003906 314.582031 287.511719 " fill-opacity="1" fill-rule="nonzero"/><path fill="rgb(13.729858%, 12.159729%, 12.548828%)" d="M 320.039062 284.523438 C 320.039062 284.523438 316.234375 287.070312 316.015625 288.726562 C 316.015625 288.726562 314.503906 293.066406 315.261719 297.265625 C 315.261719 297.265625 313.074219 289.25 314.269531 285.484375 L 320.039062 284.523438 " fill-opacity="1" fill-rule="nonzero"/><path fill="rgb(89.7995%, 43.528748%, 22.349548%)" d="M 439.585938 223.410156 C 439.585938 223.410156 456.8125 157.824219 482.828125 155.75 C 482.828125 155.75 507.460938 156.113281 478.785156 252.128906 C 478.785156 252.128906 485.621094 235.703125 439.585938 223.410156 " fill-opacity="1" fill-rule="nonzero"/><path fill="rgb(81.17981%, 60.389709%, 52.159119%)" d="M 444.460938 226.582031 C 444.460938 226.582031 459.792969 168.230469 482.917969 166.386719 C 482.917969 166.386719 504.835938 166.707031 479.332031 252.128906 C 479.332031 252.128906 485.410156 237.511719 444.460938 226.582031 " fill-opacity="1" fill-rule="nonzero"/><path fill="rgb(98.039246%, 73.728943%, 63.529968%)" d="M 456.105469 194.832031 C 460.144531 187.757812 464.046875 180.21875 469.425781 174 C 477.714844 164.386719 488.414062 162.503906 489.894531 175.910156 C 487.199219 175.441406 477.210938 171.765625 477.765625 177.976562 C 479.859375 178.722656 482.113281 179.027344 484.4375 178.910156 C 480.632812 180.695312 475.660156 179.945312 472.230469 183.414062 C 477.015625 183.414062 481.511719 184.835938 485.191406 187.558594 C 480.945312 187.664062 477.25 187.914062 473.230469 189.050781 C 477.535156 188.875 485.621094 188.429688 487.179688 193.011719 C 480.945312 196.386719 473.070312 192.414062 466.710938 197.820312 C 471.40625 197.964844 476.671875 197.722656 480.375 200.550781 C 475.988281 200.378906 471.636719 200.800781 468.394531 204 C 472 205.796875 478.386719 205.921875 482.417969 208.035156 C 477.316406 208.457031 471.875 209.164062 466.789062 209.027344 C 471.484375 213.109375 480.039062 210.699219 480.304688 220.273438 C 476.265625 219.425781 471.800781 219.835938 467.621094 219.84375 C 471.035156 220.6875 474.808594 221.996094 477.628906 224.335938 C 472.667969 222.011719 465.320312 223.265625 459.792969 223.273438 C 465.164062 222.5 473.527344 225.539062 478.195312 229.847656 C 478.195312 229.847656 472.8125 226.207031 456.132812 230.21875 C 456.132812 230.21875 448.800781 227.308594 444.460938 226.582031 C 444.460938 226.582031 451.410156 203.066406 456.105469 194.832031 " fill-opacity="1" fill-rule="nonzero"/><path fill="rgb(89.7995%, 43.528748%, 22.349548%)" d="M 333.300781 225.941406 C 333.300781 225.941406 315.96875 160.382812 289.96875 158.347656 C 289.96875 158.347656 265.324219 158.742188 294.144531 254.722656 C 294.144531 254.722656 287.285156 238.304688 333.300781 225.941406 " fill-opacity="1" fill-rule="nonzero"/><path fill="rgb(81.17981%, 60.389709%, 52.159119%)" d="M 328.425781 229.125 C 328.425781 229.125 313.015625 170.796875 289.875 168.992188 C 289.875 168.992188 267.964844 169.347656 293.59375 254.722656 C 293.59375 254.722656 287.5 240.121094 328.425781 229.125 " fill-opacity="1" fill-rule="nonzero"/><path fill="rgb(98.039246%, 73.728943%, 63.529968%)" d="M 316.742188 197.398438 C 312.691406 190.320312 308.773438 182.789062 303.390625 176.570312 C 295.082031 166.984375 284.378906 165.105469 282.921875 178.519531 C 285.617188 178.042969 295.597656 174.355469 295.054688 180.574219 C 292.960938 181.316406 290.703125 181.625 288.378906 181.511719 C 292.1875 183.285156 297.15625 182.542969 300.597656 186.007812 C 295.816406 186.011719 291.316406 187.433594 287.644531 190.160156 C 291.890625 190.261719 295.589844 190.503906 299.605469 191.636719 C 295.304688 191.457031 287.214844 191.027344 285.65625 195.613281 C 291.898438 198.984375 299.773438 195 306.132812 200.390625 C 301.457031 200.542969 296.171875 200.3125 292.464844 203.140625 C 296.859375 202.96875 301.21875 203.378906 304.460938 206.574219 C 300.863281 208.378906 294.472656 208.511719 290.445312 210.632812 C 295.550781 211.042969 300.992188 211.742188 306.074219 211.597656 C 301.390625 215.6875 292.828125 213.296875 292.578125 222.871094 C 296.621094 222.015625 301.078125 222.421875 305.265625 222.421875 C 301.847656 223.273438 298.082031 224.582031 295.265625 226.921875 C 300.214844 224.585938 307.554688 225.835938 313.101562 225.828125 C 307.726562 225.070312 299.363281 228.128906 294.707031 232.4375 C 294.707031 232.4375 300.074219 228.789062 316.769531 232.78125 C 316.769531 232.78125 324.09375 229.859375 328.425781 229.125 C 328.425781 229.125 321.445312 205.617188 316.742188 197.398438 " fill-opacity="1" fill-rule="nonzero"/><path fill="rgb(98.039246%, 73.728943%, 63.529968%)" d="M 376.859375 371.222656 C 376.867188 382.746094 365.609375 392.097656 351.730469 392.101562 C 337.839844 392.117188 326.582031 382.785156 326.578125 371.253906 C 326.570312 359.730469 337.8125 350.382812 351.707031 350.367188 C 365.589844 350.363281 376.847656 359.691406 376.859375 371.222656 " fill-opacity="1" fill-rule="nonzero"/><path fill="rgb(98.039246%, 73.728943%, 63.529968%)" d="M 441.851562 371.929688 C 441.867188 383.445312 430.617188 392.804688 416.730469 392.808594 C 402.847656 392.824219 391.582031 383.484375 391.570312 371.960938 C 391.558594 360.445312 402.8125 351.089844 416.703125 351.074219 C 430.582031 351.070312 441.84375 360.398438 441.851562 371.929688 " fill-opacity="1" fill-rule="nonzero"/><path fill="rgb(79.998779%, 48.239136%, 19.60907%)" d="M 407.582031 336.996094 C 407.589844 343.582031 396.945312 348.914062 383.808594 348.929688 C 370.675781 348.941406 360.027344 343.609375 360.023438 337.035156 C 360.023438 330.460938 370.664062 325.121094 383.789062 325.113281 C 396.921875 325.09375 407.574219 330.425781 407.582031 336.996094 " fill-opacity="1" fill-rule="nonzero"/><path fill="rgb(89.7995%, 43.528748%, 22.349548%)" d="M 366.878906 346.320312 C 366.878906 346.320312 350.59375 347.851562 368.199219 301.402344 C 368.199219 301.402344 358.269531 333.214844 366.878906 346.320312 " fill-opacity="1" fill-rule="nonzero"/><path fill="rgb(89.7995%, 43.528748%, 22.349548%)" d="M 401.589844 345.976562 C 401.589844 345.976562 417.867188 347.488281 400.191406 301.058594 C 400.191406 301.058594 410.171875 332.851562 401.589844 345.976562 " fill-opacity="1" fill-rule="nonzero"/><path fill="rgb(10.5896%, 5.488586%, 3.138733%)" d="M 364.128906 351.300781 C 364.128906 351.300781 369.210938 357.226562 376.226562 360.96875 C 376.226562 360.96875 384.066406 358.957031 381.65625 350.613281 C 381.65625 350.613281 368.191406 341.46875 364.128906 351.300781 " fill-opacity="1" fill-rule="nonzero"/><path fill="rgb(20.779419%, 12.159729%, 9.01947%)" d="M 364.128906 351.300781 C 364.128906 351.300781 359.613281 345.652344 367.75 341.582031 C 367.75 341.582031 374.527344 338.085938 380.867188 343.445312 C 380.867188 343.445312 382.9375 345.441406 386.191406 345.988281 L 385.519531 369.328125 C 385.519531 369.328125 378.621094 365.085938 375.222656 359.664062 C 375.222656 359.664062 372.195312 353.085938 378.4375 354.890625 C 378.4375 354.890625 368.648438 342.699219 364.128906 351.300781 " fill-opacity="1" fill-rule="nonzero"/><path fill="rgb(10.5896%, 5.488586%, 3.138733%)" d="M 407.589844 351.226562 C 407.589844 351.226562 402.507812 357.203125 395.492188 360.953125 C 395.492188 360.953125 387.652344 358.957031 390.042969 350.601562 C 390.042969 350.601562 403.511719 341.402344 407.589844 351.226562 " fill-opacity="1" fill-rule="nonzero"/><path fill="rgb(20.779419%, 12.159729%, 9.01947%)" d="M 407.589844 351.226562 C 407.589844 351.226562 412.085938 345.617188 403.941406 341.546875 C 403.941406 341.546875 397.164062 338.058594 390.832031 343.429688 C 390.832031 343.429688 388.761719 345.441406 385.507812 345.988281 L 385.519531 369.328125 C 385.519531 369.328125 393.101562 365.078125 396.496094 359.652344 C 396.496094 359.652344 399.703125 353.554688 393.460938 355.363281 C 393.460938 355.363281 403.0625 342.644531 407.589844 351.226562 " fill-opacity="1" fill-rule="nonzero"/><path fill="rgb(10.5896%, 5.488586%, 3.138733%)" d="M 387.539062 368.0625 C 385.871094 362.792969 386.179688 349.0625 386.179688 349.0625 L 384.972656 348.929688 C 385.273438 353.84375 383.664062 368.0625 383.664062 368.0625 L 385.519531 369.328125 L 387.539062 368.0625 " fill-opacity="1" fill-rule="nonzero"/><path fill="rgb(40.388489%, 18.818665%, 9.01947%)" d="M 380.566406 369.328125 C 380.566406 369.328125 386.21875 371.289062 382.144531 384.066406 L 389.613281 384.054688 C 389.613281 384.054688 385.671875 377.183594 389.601562 369.320312 L 380.566406 369.328125 " fill-opacity="1" fill-rule="nonzero"/><path fill="rgb(40.388489%, 18.818665%, 9.01947%)" d="M 382.144531 384.066406 C 382.144531 384.066406 379.316406 394.335938 352.941406 394.347656 C 352.941406 394.347656 374.5625 398.054688 386.234375 386.003906 C 386.234375 386.003906 393.109375 398.089844 419.292969 394.25 C 419.292969 394.25 394.273438 393.523438 388.847656 382.316406 L 382.144531 384.066406 " fill-opacity="1" fill-rule="nonzero"/><path fill="rgb(59.609985%, 10.978699%, 7.449341%)" d="M 398.539062 278.742188 C 420.378906 245.039062 393.355469 241.398438 393.355469 241.398438 C 350.917969 245.878906 362.195312 273.359375 362.195312 273.359375 C 333.308594 234.109375 337.082031 216.863281 337.082031 216.863281 C 359.996094 145.792969 454.84375 160.652344 454.84375 160.652344 C 454.84375 160.652344 440.425781 186.890625 435.617188 216.789062 C 435.617188 216.789062 457.355469 250.382812 398.539062 278.742188 " fill-opacity="1" fill-rule="nonzero"/><path fill="rgb(59.609985%, 10.978699%, 7.449341%)" d="M 349.570312 232.753906 C 349.570312 232.753906 298.179688 207.316406 283.410156 284.550781 C 283.410156 284.550781 265.402344 343.214844 308.003906 385.136719 C 309.523438 386.636719 311.457031 387.734375 313.300781 389.035156 C 313.300781 389.035156 337.074219 431.78125 385.75 437.675781 C 385.75 437.675781 411.335938 476.949219 387.507812 528.257812 C 387.507812 528.257812 330.730469 512.570312 306.898438 442.578125 C 306.898438 442.578125 292.875 478.21875 330.730469 512.570312 C 330.730469 512.570312 197.726562 486.285156 210.617188 368.726562 C 210.617188 368.726562 191.578125 355.703125 177.996094 379.59375 C 177.996094 379.59375 226.394531 183.859375 349.570312 232.753906 " fill-opacity="1" fill-rule="nonzero"/><path fill="rgb(59.609985%, 10.978699%, 7.449341%)" d="M 418.859375 231.683594 C 418.859375 231.683594 470.203125 206.179688 485.097656 283.382812 C 485.097656 283.382812 503.238281 328.597656 460.652344 384.007812 C 459.351562 385.699219 457.191406 386.613281 455.355469 387.921875 C 455.355469 387.921875 436.199219 427.175781 385.75 437.675781 C 385.75 437.675781 363.613281 476.984375 387.507812 528.257812 C 387.507812 528.257812 438.101562 511.476562 461.835938 441.449219 C 461.835938 441.449219 475.917969 477.070312 438.101562 511.476562 C 438.101562 511.476562 604.515625 495.003906 563.535156 350.21875 C 563.535156 350.21875 574.988281 318.089844 588.601562 341.964844 C 588.601562 341.964844 541.953125 182.609375 418.859375 231.683594 " fill-opacity="1" fill-rule="nonzero"/><path fill="rgb(59.609985%, 10.978699%, 7.449341%)" d="M 347.542969 200.894531 C 347.542969 200.894531 319.351562 185.277344 274.3125 230.648438 L 294.195312 245.011719 C 294.195312 245.011719 329.445312 213.078125 357.96875 246.015625 L 347.542969 200.894531 " fill-opacity="1" fill-rule="nonzero"/><path fill="rgb(59.609985%, 10.978699%, 7.449341%)" d="M 425.972656 212.78125 C 425.972656 212.78125 454.136719 197.121094 499.242188 242.421875 L 479.390625 256.824219 C 479.390625 256.824219 444.859375 206.800781 415.613281 257.917969 L 425.972656 212.78125 " fill-opacity="1" fill-rule="nonzero"/><path fill="rgb(57.249451%, 42.349243%, 36.468506%)" d="M 363.273438 362.230469 C 363.273438 363.054688 362.589844 363.714844 361.757812 363.714844 C 360.925781 363.714844 360.257812 363.054688 360.257812 362.238281 C 360.257812 361.417969 360.925781 360.75 361.757812 360.75 C 362.585938 360.75 363.273438 361.417969 363.273438 362.230469 " fill-opacity="1" fill-rule="nonzero"/><path fill="rgb(57.249451%, 42.349243%, 36.468506%)" d="M 352.472656 365.210938 C 352.476562 366.027344 351.804688 366.695312 350.964844 366.695312 C 350.140625 366.695312 349.460938 366.035156 349.460938 365.210938 C 349.460938 364.398438 350.132812 363.734375 350.964844 363.730469 C 351.804688 363.730469 352.472656 364.390625 352.472656 365.210938 " fill-opacity="1" fill-rule="nonzero"/><path fill="rgb(57.249451%, 42.349243%, 36.468506%)" d="M 358.335938 366.992188 C 358.335938 367.804688 357.65625 368.472656 356.832031 368.480469 C 356 368.480469 355.3125 367.804688 355.3125 366.992188 C 355.3125 366.167969 355.992188 365.507812 356.832031 365.507812 C 357.65625 365.507812 358.335938 366.167969 358.335938 366.992188 " fill-opacity="1" fill-rule="nonzero"/><path fill="rgb(57.249451%, 42.349243%, 36.468506%)" d="M 353.984375 371.449219 C 353.984375 372.265625 353.308594 372.925781 352.484375 372.925781 C 351.652344 372.925781 350.972656 372.265625 350.972656 371.449219 C 350.964844 370.628906 351.644531 369.96875 352.476562 369.96875 C 353.308594 369.96875 353.984375 370.621094 353.984375 371.449219 " fill-opacity="1" fill-rule="nonzero"/><path fill="rgb(57.249451%, 42.349243%, 36.468506%)" d="M 359.835938 373.476562 C 359.835938 374.296875 359.175781 374.960938 358.335938 374.960938 C 357.5 374.960938 356.832031 374.296875 356.832031 373.476562 C 356.832031 372.65625 357.5 371.996094 358.335938 371.996094 C 359.167969 371.996094 359.835938 372.65625 359.835938 373.476562 " fill-opacity="1" fill-rule="nonzero"/><path fill="rgb(57.249451%, 42.349243%, 36.468506%)" d="M 347.667969 369.492188 C 347.667969 370.3125 346.996094 370.976562 346.167969 370.976562 C 345.332031 370.976562 344.65625 370.316406 344.65625 369.5 C 344.65625 368.679688 345.332031 368.011719 346.164062 368.011719 C 346.996094 368.003906 347.667969 368.671875 347.667969 369.492188 " fill-opacity="1" fill-rule="nonzero"/><path fill="rgb(40.388489%, 18.818665%, 9.01947%)" d="M 346.164062 369.492188 C 346.164062 369.492188 309.777344 348.816406 220.742188 370.058594 C 220.742188 370.058594 300.023438 350.496094 345.589844 369.96875 C 345.589844 369.96875 346.355469 370.054688 346.164062 369.492188 " fill-opacity="1" fill-rule="nonzero"/><path fill="rgb(40.388489%, 18.818665%, 9.01947%)" d="M 351.214844 365.109375 C 351.214844 365.109375 319.035156 338.34375 227.65625 343.589844 C 227.65625 343.589844 309.136719 338.277344 350.570312 365.46875 C 350.570312 365.46875 351.296875 365.683594 351.214844 365.109375 " fill-opacity="1" fill-rule="nonzero"/><path fill="rgb(40.388489%, 18.818665%, 9.01947%)" d="M 352.464844 371.003906 C 352.464844 371.003906 317.796875 347.546875 227.378906 361.765625 C 227.378906 361.765625 307.949219 348.460938 351.851562 371.433594 C 351.851562 371.433594 352.609375 371.574219 352.464844 371.003906 " fill-opacity="1" fill-rule="nonzero"/><path fill="rgb(40.388489%, 18.818665%, 9.01947%)" d="M 356.804688 367.140625 C 356.804688 367.140625 322.144531 343.675781 231.726562 357.902344 C 231.726562 357.902344 312.296875 344.585938 356.195312 367.5625 C 356.195312 367.5625 356.957031 367.699219 356.804688 367.140625 " fill-opacity="1" fill-rule="nonzero"/><path fill="rgb(40.388489%, 18.818665%, 9.01947%)" d="M 358.78125 373.566406 C 358.78125 373.566406 321.558594 354.4375 233.503906 379.410156 C 233.503906 379.410156 311.894531 356.519531 358.226562 374.0625 C 358.226562 374.0625 358.992188 374.117188 358.78125 373.566406 " fill-opacity="1" fill-rule="nonzero"/><path fill="rgb(40.388489%, 18.818665%, 9.01947%)" d="M 362.261719 361.894531 C 362.261719 361.894531 333.445312 331.539062 242.085938 325.988281 C 242.085938 325.988281 323.632812 330.300781 361.574219 362.183594 C 361.574219 362.183594 362.28125 362.480469 362.261719 361.894531 " fill-opacity="1" fill-rule="nonzero"/><path fill="rgb(57.249451%, 42.349243%, 36.468506%)" d="M 407.105469 362.347656 C 407.105469 363.167969 407.792969 363.828125 408.621094 363.828125 C 409.453125 363.828125 410.117188 363.167969 410.117188 362.347656 C 410.117188 361.523438 409.445312 360.863281 408.621094 360.863281 C 407.792969 360.863281 407.105469 361.523438 407.105469 362.347656 " fill-opacity="1" fill-rule="nonzero"/><path fill="rgb(57.249451%, 42.349243%, 36.468506%)" d="M 417.898438 365.308594 C 417.898438 366.128906 418.582031 366.789062 419.414062 366.789062 C 420.246094 366.789062 420.917969 366.128906 420.914062 365.308594 C 420.914062 364.484375 420.246094 363.820312 419.414062 363.820312 C 418.574219 363.820312 417.898438 364.484375 417.898438 365.308594 " fill-opacity="1" fill-rule="nonzero"/><path fill="rgb(57.249451%, 42.349243%, 36.468506%)" d="M 412.046875 367.09375 C 412.046875 367.914062 412.734375 368.578125 413.558594 368.574219 C 414.390625 368.574219 415.066406 367.914062 415.066406 367.085938 C 415.066406 366.273438 414.386719 365.605469 413.558594 365.605469 C 412.726562 365.605469 412.046875 366.273438 412.046875 367.09375 " fill-opacity="1" fill-rule="nonzero"/><path fill="rgb(57.249451%, 42.349243%, 36.468506%)" d="M 416.402344 371.539062 C 416.402344 372.359375 417.082031 373.027344 417.90625 373.027344 C 418.738281 373.027344 419.414062 372.359375 419.414062 371.539062 C 419.414062 370.71875 418.730469 370.054688 417.90625 370.054688 C 417.074219 370.058594 416.402344 370.726562 416.402344 371.539062 " fill-opacity="1" fill-rule="nonzero"/><path fill="rgb(57.249451%, 42.349243%, 36.468506%)" d="M 410.546875 373.582031 C 410.546875 374.402344 411.226562 375.054688 412.046875 375.054688 C 412.886719 375.054688 413.558594 374.402344 413.558594 373.582031 C 413.558594 372.753906 412.886719 372.09375 412.046875 372.09375 C 411.214844 372.09375 410.546875 372.753906 410.546875 373.582031 " fill-opacity="1" fill-rule="nonzero"/><path fill="rgb(57.249451%, 42.349243%, 36.468506%)" d="M 422.714844 369.582031 C 422.714844 370.402344 423.390625 371.070312 424.222656 371.070312 C 425.0625 371.0625 425.734375 370.398438 425.734375 369.582031 C 425.734375 368.757812 425.0625 368.089844 424.222656 368.089844 C 423.390625 368.089844 422.714844 368.765625 422.714844 369.582031 " fill-opacity="1" fill-rule="nonzero"/><path fill="rgb(40.388489%, 18.818665%, 9.01947%)" d="M 424.222656 369.582031 C 424.222656 369.582031 460.578125 348.847656 549.636719 369.960938 C 549.636719 369.960938 470.328125 350.507812 424.796875 370.054688 C 424.796875 370.054688 424.03125 370.132812 424.222656 369.582031 " fill-opacity="1" fill-rule="nonzero"/><path fill="rgb(40.388489%, 18.818665%, 9.01947%)" d="M 419.167969 365.195312 C 419.167969 365.195312 451.3125 338.390625 542.6875 343.503906 C 542.6875 343.503906 461.207031 338.308594 419.808594 365.566406 C 419.808594 365.566406 419.074219 365.785156 419.167969 365.195312 " fill-opacity="1" fill-rule="nonzero"/><path fill="rgb(40.388489%, 18.818665%, 9.01947%)" d="M 417.933594 371.097656 C 417.933594 371.097656 452.554688 347.585938 542.996094 361.675781 C 542.996094 361.675781 462.402344 348.480469 418.535156 371.519531 C 418.535156 371.519531 417.789062 371.664062 417.933594 371.097656 " fill-opacity="1" fill-rule="nonzero"/><path fill="rgb(40.388489%, 18.818665%, 9.01947%)" d="M 413.578125 367.230469 C 413.578125 367.230469 448.195312 343.722656 538.644531 357.816406 C 538.644531 357.816406 458.054688 344.613281 414.1875 367.65625 C 414.1875 367.65625 413.433594 367.804688 413.578125 367.230469 " fill-opacity="1" fill-rule="nonzero"/><path fill="rgb(40.388489%, 18.818665%, 9.01947%)" d="M 411.613281 373.679688 C 411.613281 373.679688 448.808594 354.484375 536.90625 379.324219 C 536.90625 379.324219 458.484375 356.558594 412.167969 374.167969 C 412.167969 374.167969 411.398438 374.222656 411.613281 373.679688 " fill-opacity="1" fill-rule="nonzero"/><path fill="rgb(40.388489%, 18.818665%, 9.01947%)" d="M 408.125 362.003906 C 408.125 362.003906 436.878906 331.605469 528.234375 325.914062 C 528.234375 325.914062 446.695312 330.355469 408.796875 362.289062 C 408.796875 362.289062 408.097656 362.585938 408.125 362.003906 " fill-opacity="1" fill-rule="nonzero"/><g clip-path="url(#id1)"><path fill="rgb(20.779419%, 12.159729%, 9.01947%)" d="M 633.316406 391.890625 C 633.316406 391.890625 551.398438 396 581.851562 442.949219 C 628.539062 473.796875 633.316406 391.890625 633.316406 391.890625 " fill-opacity="1" fill-rule="nonzero"/></g><path fill="rgb(74.119568%, 73.728943%, 74.119568%)" d="M 593.570312 448.710938 C 590.730469 447.851562 587.683594 446.488281 584.429688 444.558594 C 587.683594 446.488281 590.730469 447.84375 593.570312 448.710938 " fill-opacity="1" fill-rule="nonzero"/><path fill="rgb(67.059326%, 40.388489%, 16.079712%)" d="M 584.429688 444.558594 C 583.582031 444.058594 582.730469 443.523438 581.851562 442.949219 C 581.824219 442.90625 581.800781 442.863281 581.773438 442.820312 C 581.800781 442.863281 581.824219 442.90625 581.851562 442.949219 C 582.730469 443.523438 583.582031 444.058594 584.429688 444.558594 M 581.738281 442.761719 C 581.71875 442.742188 581.707031 442.714844 581.691406 442.691406 C 581.707031 442.714844 581.71875 442.742188 581.738281 442.761719 M 581.648438 442.628906 C 581.632812 442.609375 581.621094 442.585938 581.613281 442.566406 C 581.621094 442.585938 581.632812 442.609375 581.648438 442.628906 M 581.566406 442.5 C 581.554688 442.480469 581.542969 442.464844 581.527344 442.4375 C 581.542969 442.457031 581.554688 442.480469 581.566406 442.5 M 581.480469 442.367188 C 581.476562 442.351562 581.460938 442.332031 581.457031 442.320312 C 581.460938 442.332031 581.476562 442.351562 581.480469 442.367188 M 581.402344 442.234375 C 581.394531 442.226562 581.390625 442.214844 581.375 442.199219 C 581.390625 442.214844 581.394531 442.226562 581.402344 442.234375 M 581.113281 441.773438 C 581.105469 441.765625 581.105469 441.757812 581.097656 441.75 C 581.105469 441.757812 581.105469 441.765625 581.113281 441.773438 M 581.039062 441.652344 C 581.03125 441.644531 581.027344 441.640625 581.019531 441.632812 C 581.027344 441.640625 581.03125 441.644531 581.039062 441.652344 M 580.960938 441.527344 C 580.960938 441.519531 580.953125 441.515625 580.945312 441.515625 C 580.953125 441.515625 580.960938 441.519531 580.960938 441.527344 M 580.886719 441.40625 C 580.878906 441.402344 580.878906 441.402344 580.878906 441.394531 C 580.878906 441.402344 580.878906 441.402344 580.886719 441.40625 " fill-opacity="1" fill-rule="nonzero"/><path fill="rgb(74.119568%, 73.728943%, 74.119568%)" d="M 575.34375 427.433594 C 575.34375 427.433594 575.34375 427.425781 575.34375 427.425781 C 575.34375 427.433594 575.34375 427.433594 575.34375 427.433594 M 575.332031 427.339844 C 575.332031 427.339844 575.332031 427.335938 575.332031 427.328125 C 575.332031 427.335938 575.332031 427.339844 575.332031 427.339844 M 575.320312 427.25 C 575.320312 427.242188 575.320312 427.242188 575.320312 427.234375 C 575.320312 427.234375 575.320312 427.242188 575.320312 427.25 M 575.265625 426.871094 C 575.265625 426.871094 575.265625 426.863281 575.265625 426.863281 C 575.265625 426.863281 575.265625 426.871094 575.265625 426.871094 M 575.257812 426.785156 C 575.257812 426.777344 575.253906 426.773438 575.253906 426.765625 C 575.253906 426.777344 575.257812 426.777344 575.257812 426.785156 M 575.246094 426.699219 C 575.246094 426.6875 575.238281 426.679688 575.238281 426.667969 C 575.238281 426.679688 575.246094 426.6875 575.246094 426.699219 M 575.234375 426.601562 C 575.234375 426.585938 575.234375 426.582031 575.226562 426.566406 C 575.234375 426.574219 575.234375 426.585938 575.234375 426.601562 M 575.21875 426.5 C 575.21875 426.488281 575.21875 426.480469 575.21875 426.46875 C 575.21875 426.480469 575.21875 426.488281 575.21875 426.5 M 575.214844 426.402344 C 575.214844 426.394531 575.207031 426.390625 575.207031 426.375 C 575.207031 426.390625 575.214844 426.394531 575.214844 426.402344 M 575.191406 426.242188 C 575.191406 426.230469 575.191406 426.222656 575.191406 426.21875 C 575.191406 426.222656 575.191406 426.230469 575.191406 426.242188 M 575.1875 426.164062 C 575.1875 426.144531 575.1875 426.132812 575.179688 426.117188 C 575.1875 426.132812 575.1875 426.144531 575.1875 426.164062 M 575.171875 426.066406 C 575.171875 426.046875 575.171875 426.03125 575.171875 426.011719 C 575.171875 426.03125 575.171875 426.046875 575.171875 426.066406 M 575.167969 425.964844 C 575.167969 425.953125 575.160156 425.933594 575.160156 425.914062 C 575.160156 425.933594 575.167969 425.945312 575.167969 425.964844 M 575.160156 425.867188 C 575.152344 425.855469 575.152344 425.835938 575.152344 425.8125 C 575.152344 425.835938 575.152344 425.847656 575.160156 425.867188 M 575.148438 425.773438 C 575.148438 425.75 575.148438 425.726562 575.148438 425.703125 C 575.148438 425.726562 575.148438 425.753906 575.148438 425.773438 M 575.140625 425.675781 C 575.132812 425.601562 575.132812 425.542969 575.128906 425.476562 C 575.132812 425.542969 575.132812 425.601562 575.140625 425.675781 M 575.128906 425.457031 C 575.128906 425.429688 575.121094 425.40625 575.121094 425.371094 C 575.121094 425.40625 575.128906 425.429688 575.128906 425.457031 M 575.121094 425.351562 C 575.113281 425.324219 575.113281 425.300781 575.113281 425.277344 C 575.113281 425.300781 575.121094 425.324219 575.121094 425.351562 M 575.113281 425.246094 C 575.113281 425.21875 575.105469 425.199219 575.105469 425.171875 C 575.105469 425.199219 575.113281 425.21875 575.113281 425.246094 M 575.105469 425.152344 C 575.101562 425.121094 575.101562 425.09375 575.101562 425.066406 C 575.101562 425.09375 575.101562 425.121094 575.105469 425.152344 M 575.101562 425.054688 C 575.09375 424.914062 575.085938 424.785156 575.082031 424.644531 C 575.085938 424.777344 575.09375 424.914062 575.101562 425.054688 M 575.082031 424.644531 C 575.082031 424.613281 575.082031 424.578125 575.082031 424.539062 C 575.082031 424.578125 575.082031 424.613281 575.082031 424.644531 M 575.082031 424.539062 C 574.789062 414.984375 580.722656 408.207031 588.894531 403.394531 C 580.722656 408.207031 574.789062 414.984375 575.082031 424.539062 M 588.898438 403.386719 C 588.925781 403.375 588.953125 403.363281 588.972656 403.347656 C 588.953125 403.363281 588.925781 403.375 588.898438 403.386719 M 589 403.335938 C 589.019531 403.320312 589.039062 403.308594 589.050781 403.300781 C 589.039062 403.308594 589.019531 403.320312 589 403.335938 M 589.089844 403.28125 C 589.105469 403.269531 589.117188 403.261719 589.132812 403.257812 C 589.117188 403.261719 589.105469 403.277344 589.089844 403.28125 M 589.175781 403.230469 C 589.183594 403.222656 589.195312 403.214844 589.203125 403.214844 C 589.191406 403.222656 589.183594 403.222656 589.175781 403.230469 " fill-opacity="1" fill-rule="nonzero"/><path fill="rgb(16.468811%, 9.408569%, 6.669617%)" d="M 601.035156 449.890625 C 598.710938 449.890625 596.230469 449.523438 593.570312 448.710938 C 590.730469 447.84375 587.683594 446.488281 584.429688 444.558594 C 583.582031 444.058594 582.730469 443.523438 581.851562 442.949219 C 581.824219 442.90625 581.800781 442.863281 581.773438 442.820312 C 581.757812 442.800781 581.746094 442.78125 581.738281 442.761719 C 581.71875 442.742188 581.707031 442.714844 581.691406 442.691406 C 581.679688 442.671875 581.667969 442.652344 581.648438 442.628906 C 581.632812 442.609375 581.621094 442.585938 581.613281 442.566406 C 581.59375 442.542969 581.582031 442.519531 581.566406 442.5 C 581.554688 442.480469 581.542969 442.457031 581.527344 442.4375 C 581.515625 442.417969 581.5 442.394531 581.480469 442.367188 C 581.476562 442.351562 581.460938 442.332031 581.457031 442.320312 C 581.4375 442.292969 581.414062 442.265625 581.402344 442.234375 C 581.394531 442.226562 581.390625 442.214844 581.375 442.199219 C 581.289062 442.0625 581.199219 441.917969 581.113281 441.773438 C 581.105469 441.765625 581.105469 441.757812 581.097656 441.75 C 581.078125 441.71875 581.058594 441.6875 581.039062 441.652344 C 581.03125 441.644531 581.027344 441.640625 581.019531 441.632812 C 581 441.59375 580.980469 441.566406 580.960938 441.527344 C 580.960938 441.519531 580.953125 441.515625 580.945312 441.515625 C 580.925781 441.472656 580.90625 441.441406 580.886719 441.40625 C 580.878906 441.402344 580.878906 441.402344 580.878906 441.394531 C 577.738281 436.226562 575.984375 431.589844 575.34375 427.433594 C 575.34375 427.433594 575.34375 427.433594 575.34375 427.425781 C 575.34375 427.398438 575.339844 427.367188 575.332031 427.339844 C 575.332031 427.339844 575.332031 427.335938 575.332031 427.328125 C 575.324219 427.300781 575.324219 427.273438 575.320312 427.25 C 575.320312 427.242188 575.320312 427.234375 575.320312 427.234375 C 575.300781 427.117188 575.285156 426.992188 575.265625 426.871094 C 575.265625 426.871094 575.265625 426.863281 575.265625 426.863281 C 575.265625 426.839844 575.257812 426.8125 575.257812 426.785156 C 575.257812 426.777344 575.253906 426.777344 575.253906 426.765625 C 575.253906 426.746094 575.246094 426.71875 575.246094 426.699219 C 575.246094 426.6875 575.238281 426.679688 575.238281 426.667969 C 575.238281 426.648438 575.234375 426.621094 575.234375 426.601562 C 575.234375 426.585938 575.234375 426.574219 575.226562 426.566406 C 575.226562 426.546875 575.226562 426.519531 575.21875 426.5 C 575.21875 426.488281 575.21875 426.480469 575.21875 426.46875 C 575.214844 426.449219 575.214844 426.421875 575.214844 426.402344 C 575.214844 426.394531 575.207031 426.390625 575.207031 426.375 C 575.207031 426.328125 575.199219 426.285156 575.191406 426.242188 C 575.191406 426.230469 575.191406 426.222656 575.191406 426.21875 C 575.1875 426.199219 575.1875 426.179688 575.1875 426.164062 C 575.1875 426.144531 575.1875 426.132812 575.179688 426.117188 C 575.179688 426.097656 575.179688 426.085938 575.171875 426.066406 C 575.171875 426.046875 575.171875 426.03125 575.171875 426.011719 C 575.167969 426 575.167969 425.984375 575.167969 425.964844 C 575.167969 425.945312 575.160156 425.933594 575.160156 425.914062 C 575.160156 425.898438 575.160156 425.886719 575.160156 425.867188 C 575.152344 425.847656 575.152344 425.835938 575.152344 425.8125 C 575.152344 425.800781 575.152344 425.789062 575.148438 425.773438 C 575.148438 425.753906 575.148438 425.726562 575.148438 425.703125 C 575.140625 425.695312 575.140625 425.683594 575.140625 425.675781 C 575.132812 425.601562 575.132812 425.542969 575.128906 425.476562 C 575.128906 425.472656 575.128906 425.464844 575.128906 425.457031 C 575.128906 425.429688 575.121094 425.40625 575.121094 425.371094 C 575.121094 425.363281 575.121094 425.359375 575.121094 425.351562 C 575.121094 425.324219 575.113281 425.300781 575.113281 425.277344 C 575.113281 425.265625 575.113281 425.253906 575.113281 425.246094 C 575.113281 425.21875 575.105469 425.199219 575.105469 425.171875 C 575.105469 425.160156 575.105469 425.160156 575.105469 425.152344 C 575.101562 425.121094 575.101562 425.09375 575.101562 425.066406 C 575.101562 425.0625 575.101562 425.054688 575.101562 425.054688 C 575.09375 424.914062 575.085938 424.777344 575.082031 424.644531 C 575.082031 424.613281 575.082031 424.578125 575.082031 424.539062 C 574.789062 414.984375 580.722656 408.207031 588.894531 403.394531 C 588.898438 403.394531 588.898438 403.386719 588.898438 403.386719 C 588.925781 403.375 588.953125 403.363281 588.972656 403.347656 C 588.984375 403.34375 588.992188 403.335938 589 403.335938 C 589.019531 403.320312 589.039062 403.308594 589.050781 403.300781 C 589.066406 403.296875 589.078125 403.289062 589.089844 403.28125 C 589.105469 403.277344 589.117188 403.261719 589.132812 403.257812 C 589.144531 403.25 589.164062 403.234375 589.175781 403.230469 C 589.183594 403.222656 589.191406 403.222656 589.203125 403.214844 C 602.613281 395.460938 621.855469 392.921875 629.742188 392.183594 C 615.652344 399.265625 600.5 411.417969 599.878906 427.015625 C 599.535156 435.804688 603.023438 443.285156 608.433594 448.484375 C 606.171875 449.390625 603.710938 449.890625 601.035156 449.890625 " fill-opacity="1" fill-rule="nonzero"/></svg>