<svg xmlns="http://www.w3.org/2000/svg" xmlns:xlink="http://www.w3.org/1999/xlink" width="1080" zoomAndPan="magnify" viewBox="0 0 810 809.999993" height="1080" preserveAspectRatio="xMidYMid meet" version="1.0"><defs><clipPath id="id1"><path d="M 285 317 L 609.730469 317 L 609.730469 710 L 285 710 Z M 285 317 " clip-rule="nonzero"/></clipPath><clipPath id="id2"><path d="M 200.230469 81 L 316 81 L 316 187 L 200.230469 187 Z M 200.230469 81 " clip-rule="nonzero"/></clipPath></defs><rect x="-81" width="972" fill="rgb(100%, 100%, 100%)" y="-80.999999" height="971.999992" fill-opacity="1"/><rect x="-81" width="972" fill="rgb(0%, 29.019165%, 67.83905%)" y="-80.999999" height="971.999992" fill-opacity="1"/><g clip-path="url(#id1)"><path fill="rgb(25.489807%, 25.489807%, 25.489807%)" d="M 306.648438 350.976562 C 306.648438 350.976562 319.265625 410.5 302.445312 459.992188 C 289.832031 496.871094 317.648438 498.488281 310.53125 536.984375 C 297.269531 609.445312 246.164062 709.726562 341.90625 709.726562 C 546.011719 709.726562 546.011719 709.726562 546.011719 709.726562 C 546.011719 709.726562 722.941406 656.027344 487.464844 317.011719 C 487.789062 317.335938 453.175781 387.207031 306.648438 350.976562 Z M 306.648438 350.976562 " fill-opacity="1" fill-rule="nonzero"/></g><path fill="rgb(98.039246%, 98.039246%, 98.039246%)" d="M 355.816406 715.546875 C 345.140625 711.019531 240.664062 440.582031 366.492188 421.820312 C 426.976562 412.761719 511.398438 414.058594 509.460938 715.546875 C 509.460938 715.546875 430.210938 744.984375 355.816406 715.546875 Z M 355.816406 715.546875 " fill-opacity="1" fill-rule="nonzero"/><g clip-path="url(#id2)"><path fill="rgb(25.489807%, 25.489807%, 25.489807%)" d="M 247.457031 186.324219 C 247.457031 186.324219 185.03125 174.351562 203.789062 116.449219 C 212.523438 90.246094 258.777344 69.21875 285.949219 89.921875 C 295.328125 97.039062 306.003906 111.273438 315.382812 130.035156 " fill-opacity="1" fill-rule="nonzero"/></g><path fill="rgb(25.489807%, 25.489807%, 25.489807%)" d="M 541.160156 186.324219 C 541.160156 186.324219 603.585938 174.351562 584.824219 116.449219 C 576.09375 90.246094 529.835938 69.21875 502.667969 90.246094 C 493.285156 97.363281 482.613281 111.597656 473.230469 130.359375 " fill-opacity="1" fill-rule="nonzero"/><path fill="rgb(98.039246%, 98.039246%, 98.039246%)" d="M 514.3125 154.296875 C 452.855469 108.363281 401.101562 108.683594 394.308594 108.683594 C 387.515625 108.363281 335.761719 108.039062 274.304688 154.296875 C 207.996094 203.789062 235.488281 309.894531 270.421875 332.539062 C 299.859375 351.949219 324.765625 364.5625 394.308594 364.5625 C 463.851562 364.5625 488.757812 351.949219 518.191406 332.539062 C 558.300781 306.984375 580.621094 203.46875 514.3125 154.296875 Z M 514.3125 154.296875 " fill-opacity="1" fill-rule="nonzero"/><path fill="rgb(25.489807%, 25.489807%, 25.489807%)" d="M 365.195312 212.847656 C 347.40625 190.851562 288.859375 152.679688 256.515625 262.34375 C 250.367188 282.722656 238.722656 357.125 314.738281 325.421875 C 343.199219 313.453125 407.246094 263.960938 365.195312 212.847656 Z M 365.195312 212.847656 " fill-opacity="1" fill-rule="nonzero"/><path fill="rgb(25.489807%, 25.489807%, 25.489807%)" d="M 426.976562 212.847656 C 445.089844 190.527344 503.3125 152.355469 535.984375 262.34375 C 542.128906 282.722656 550.863281 356.152344 477.761719 325.421875 C 448.972656 313.453125 385.25 263.960938 426.976562 212.847656 Z M 426.976562 212.847656 " fill-opacity="1" fill-rule="nonzero"/><path fill="rgb(98.039246%, 98.039246%, 98.039246%)" d="M 353.875 240.667969 C 345.140625 229.992188 317.972656 212.203125 302.445312 263.960938 C 299.535156 273.664062 294.035156 308.925781 330.261719 294.042969 C 343.523438 287.898438 373.605469 264.929688 353.875 240.667969 Z M 353.875 240.667969 " fill-opacity="1" fill-rule="nonzero"/><path fill="rgb(98.039246%, 98.039246%, 98.039246%)" d="M 437.003906 240.667969 C 445.738281 229.992188 472.910156 212.203125 488.433594 263.960938 C 491.347656 273.664062 496.84375 308.925781 460.617188 294.042969 C 447.355469 287.898438 417.273438 264.929688 437.003906 240.667969 Z M 437.003906 240.667969 " fill-opacity="1" fill-rule="nonzero"/><path fill="rgb(25.489807%, 25.489807%, 25.489807%)" d="M 310.53125 355.828125 C 305.679688 353.242188 249.398438 490.402344 276.570312 537.304688 C 276.570312 537.304688 301.476562 586.800781 328.320312 586.800781 C 328.320312 586.800781 346.113281 585.828125 349.992188 571.917969 C 360.667969 533.101562 337.378906 369.417969 310.53125 355.828125 Z M 310.53125 355.828125 " fill-opacity="1" fill-rule="nonzero"/><path fill="rgb(25.489807%, 25.489807%, 25.489807%)" d="M 587.738281 498.8125 C 587.738281 498.8125 549.890625 433.46875 539.863281 412.761719 C 539.863281 412.761719 503.960938 419.558594 469.351562 441.230469 C 448.648438 454.171875 422.125 476.8125 413.070312 500.429688 C 397.867188 540.542969 393.984375 580.652344 419.859375 586.152344 C 451.238281 592.945312 464.175781 559.304688 480.671875 533.425781 C 503.636719 497.195312 579.003906 508.191406 587.738281 498.8125 Z M 587.738281 498.8125 " fill-opacity="1" fill-rule="nonzero"/><path fill="rgb(25.489807%, 25.489807%, 25.489807%)" d="M 371.34375 711.019531 C 359.699219 686.757812 295.652344 671.230469 285.949219 714.253906 C 284.976562 719.105469 287.242188 724.605469 302.445312 723.957031 C 320.882812 723.3125 378.78125 726.871094 371.34375 711.019531 Z M 371.34375 711.019531 " fill-opacity="1" fill-rule="nonzero"/><path fill="rgb(25.489807%, 25.489807%, 25.489807%)" d="M 570.917969 711.019531 C 559.273438 686.757812 495.226562 671.230469 485.523438 714.253906 C 484.554688 719.105469 486.816406 724.605469 502.019531 723.957031 C 520.457031 723.3125 578.355469 726.871094 570.917969 711.019531 Z M 570.917969 711.019531 " fill-opacity="1" fill-rule="nonzero"/><path fill="rgb(25.489807%, 25.489807%, 25.489807%)" d="M 394.308594 306.984375 C 404.011719 306.984375 412.421875 299.867188 412.421875 294.691406 C 412.421875 291.457031 401.746094 289.839844 394.632812 289.839844 C 385.898438 289.839844 377.164062 291.132812 377.164062 294.691406 C 376.839844 299.542969 384.605469 306.984375 394.308594 306.984375 Z M 394.308594 306.984375 " fill-opacity="1" fill-rule="nonzero"/><path fill="rgb(25.489807%, 25.489807%, 25.489807%)" d="M 325.085938 263.3125 C 325.085938 257.8125 327.675781 253.285156 330.585938 253.285156 C 333.496094 253.285156 336.085938 257.8125 336.085938 263.3125 C 336.085938 268.8125 333.496094 273.339844 330.585938 273.339844 C 327.675781 273.339844 325.085938 268.8125 325.085938 263.3125 Z M 325.085938 263.3125 " fill-opacity="1" fill-rule="nonzero"/><path fill="rgb(25.489807%, 25.489807%, 25.489807%)" d="M 455.441406 263.3125 C 455.441406 257.8125 458.03125 253.285156 460.941406 253.285156 C 463.851562 253.285156 466.4375 257.8125 466.4375 263.3125 C 466.4375 268.8125 463.851562 273.339844 460.941406 273.339844 C 458.03125 273.339844 455.441406 268.8125 455.441406 263.3125 Z M 455.441406 263.3125 " fill-opacity="1" fill-rule="nonzero"/></svg>